<svg width="7" height="7" viewBox="0 0 7 7" fill="none" xmlns="http://www.w3.org/2000/svg">
<path d="M3.5 3.5C3.87274 3.5 4.23711 3.39736 4.54704 3.20507C4.85696 3.01278 5.09852 2.73947 5.24116 2.4197C5.3838 2.09993 5.42112 1.74806 5.3484 1.40859C5.27569 1.06913 5.09619 0.757306 4.83262 0.512564C4.56906 0.267822 4.23325 0.101151 3.86767 0.0336265C3.50209 -0.0338976 3.12316 0.000758245 2.77879 0.133212C2.43442 0.265665 2.14008 0.489967 1.933 0.777753C1.72592 1.06554 1.61538 1.40388 1.61538 1.75C1.61538 2.21413 1.81394 2.65925 2.16738 2.98744C2.52081 3.31563 3.00017 3.5 3.5 3.5ZM3.5 4C2.33188 4 0 4.67 0 6V7H7V6C7 4.67 4.66813 4 3.5 4Z" fill="#BABABA"/>
</svg>
