<svg width="7" height="7" viewBox="0 0 7 7" fill="none" xmlns="http://www.w3.org/2000/svg">
<path d="M7 0.875V6.125C7 6.35706 6.90781 6.57962 6.74372 6.74372C6.57962 6.90781 6.35706 7 6.125 7H0.875C0.642936 7 0.420376 6.90781 0.256282 6.74372C0.0921872 6.57962 0 6.35706 0 6.125V0.875C0 0.642936 0.0921872 0.420376 0.256282 0.256282C0.420376 0.0921872 0.642936 0 0.875 0H6.125C6.35706 0 6.57962 0.0921872 6.74372 0.256282C6.90781 0.420376 7 0.642936 7 0.875ZM6.125 0.875H0.875V3.66625L1.83312 2.70812L4.12125 4.99625L4.55875 4.55875C4.69181 4.45232 4.85931 4.39844 5.02946 4.40731C5.19962 4.41618 5.3606 4.48719 5.48188 4.60687L6.125 5.25V0.875ZM3.9375 2.40625C3.9375 2.2322 4.00664 2.06528 4.12971 1.94221C4.25278 1.81914 4.4197 1.75 4.59375 1.75C4.7678 1.75 4.93472 1.81914 5.05779 1.94221C5.18086 2.06528 5.25 2.2322 5.25 2.40625C5.25 2.5803 5.18086 2.74722 5.05779 2.87029C4.93472 2.99336 4.7678 3.0625 4.59375 3.0625C4.4197 3.0625 4.25278 2.99336 4.12971 2.87029C4.00664 2.74722 3.9375 2.5803 3.9375 2.40625Z" fill="#BABABA"/>
</svg>
