<svg width="7" height="8" viewBox="0 0 7 8" fill="none" xmlns="http://www.w3.org/2000/svg">
<path d="M4.04847 7.91813C5.33565 7.66061 7 6.7354 7 4.34319C7 2.16655 5.40524 0.716825 4.25847 0.0507913C4.00359 -0.0973076 3.70588 0.097278 3.70588 0.391419V1.14343C3.70588 1.73665 3.45635 2.81942 2.76294 3.26989C2.40882 3.49985 2.02588 3.15552 1.98306 2.73591L1.94765 2.39117C1.90647 1.99048 1.498 1.74735 1.17765 1.99171C0.601588 2.42984 0 3.19913 0 4.34278C0 7.26814 2.17782 8 3.26653 8C3.33022 8 3.39665 7.99794 3.46582 7.99383C3.64947 7.97079 3.46582 8.03456 4.04847 7.91772" fill="#BABABA"/>
<path d="M2 6.57322C2 7.62989 2.90471 7.95657 3.46443 8.00174C3.65557 7.97915 3.46443 8.04166 4.07086 7.92712C4.51614 7.77911 5 7.39919 5 6.57322C5 6.05012 4.649 5.72707 4.37429 5.57583C4.29029 5.52945 4.19257 5.58793 4.18529 5.67908C4.16129 5.96865 3.86557 6.19935 3.66457 5.97914C3.48671 5.78475 3.41171 5.50041 3.41171 5.31852V5.08057C3.41171 4.9378 3.25871 4.84262 3.12757 4.91602C2.64071 5.18744 2 5.74643 2 6.57322Z" fill="#E7E7E7"/>
</svg>
