<svg width="7" height="8" viewBox="0 0 7 8" fill="none" xmlns="http://www.w3.org/2000/svg">
<path d="M6 8C6.33041 8 7 7.84759 7 7.55556V4V0.444444C7 0.152406 6.34015 0 6 0C5.76204 0 5.02349 0.0959822 4.76605 0.313988L2.62357 2.13188C2.58809 2.15824 2.54318 2.17218 2.49713 2.17113H1.05445C0.369377 2.17113 0 2.50688 0 3.16071V4.85231C0 5.50632 0.369378 5.84189 1.05424 5.84189H2.49713C2.54584 5.84189 2.58937 5.85491 2.62357 5.88114L4.76605 7.7167C4.99903 7.91276 5.76204 8 6 8Z" fill="#BABABA"/>
</svg>
