<svg width="7" height="6" viewBox="0 0 7 6" fill="none" xmlns="http://www.w3.org/2000/svg">
<path d="M3.50001 -9.53674e-07C3.3406 -0.000140557 3.18386 0.0398846 3.04496 0.116198C2.90605 0.192512 2.78969 0.302531 2.70714 0.435601L0.12681 4.63855C0.0448497 4.7753 0.00112156 4.93065 0 5.08907C-0.00112156 5.24748 0.0404028 5.40341 0.120419 5.54125C0.200436 5.67909 0.31614 5.79401 0.455956 5.87452C0.595773 5.95502 0.754802 5.99829 0.917135 6H6.07938C6.24157 5.99888 6.40063 5.95626 6.54066 5.8764C6.68069 5.79654 6.7968 5.68222 6.8774 5.54488C6.958 5.40753 7.00027 5.25195 6.99998 5.09367C6.99969 4.9354 6.95685 4.77996 6.87575 4.6429L4.29352 0.437153C4.21087 0.303911 4.09444 0.193691 3.95546 0.117122C3.81647 0.0405528 3.65961 0.000215181 3.50001 -9.53674e-07Z" fill="#BABABA"/>
</svg>
