<svg width="7" height="7" viewBox="0 0 7 7" fill="none" xmlns="http://www.w3.org/2000/svg">
<path d="M3.79163 6.86778L6.19647 4.1074C7.2375 2.98583 7.19162 1.57725 6.48969 0.722076C6.14047 0.296236 5.63182 0.0158432 5.04305 0.00067628C4.54023 -0.0125461 4.01174 0.167901 3.50191 0.561462C2.99054 0.167901 2.46049 -0.0125461 1.95689 0.00067628C1.36773 0.0162321 0.8583 0.296236 0.508696 0.722076C-0.193623 1.57803 -0.236011 2.98661 0.808913 4.10779L3.21336 6.86778C3.28725 6.95178 3.39225 7 3.5023 7C3.55706 6.99955 3.6111 6.98753 3.66089 6.96475C3.71068 6.94196 3.7551 6.90892 3.79124 6.86778H3.79163Z" fill="#BABABA"/>
</svg>
