<svg width="48" height="33" viewBox="0 0 48 33" fill="none" xmlns="http://www.w3.org/2000/svg">
<path fill-rule="evenodd" clip-rule="evenodd" d="M6.60388 0.66C7.02575 0.238649 7.59762 0.00197983 8.19388 0.00197983C8.79013 0.00197983 9.362 0.238649 9.78388 0.66L15.7839 6.66C16.1813 7.08652 16.3977 7.65066 16.3874 8.23357C16.3771 8.81647 16.141 9.37263 15.7287 9.78487C15.3165 10.1971 14.7603 10.4332 14.1774 10.4435C13.5945 10.4538 13.0304 10.2374 12.6039 9.84L10.4439 7.68V30.75C10.4439 31.3467 10.2068 31.919 9.78487 32.341C9.36291 32.7629 8.79061 33 8.19388 33C7.59714 33 7.02484 32.7629 6.60288 32.341C6.18093 31.919 5.94388 31.3467 5.94388 30.75V7.68L3.78388 9.84C3.35735 10.2374 2.79321 10.4538 2.21031 10.4435C1.6274 10.4332 1.07125 10.1971 0.65901 9.78487C0.246771 9.37263 0.0106352 8.81647 0.000350541 8.23357C-0.00993411 7.65066 0.206436 7.08652 0.603876 6.66L6.60388 0.66ZM20.9439 30.75C20.9439 31.992 21.9519 33 23.1939 33H45.6939C46.2906 33 46.8629 32.7629 47.2849 32.341C47.7068 31.919 47.9439 31.3467 47.9439 30.75C47.9439 30.1533 47.7068 29.581 47.2849 29.159C46.8629 28.7371 46.2906 28.5 45.6939 28.5H23.1939C22.5971 28.5 22.0248 28.7371 21.6029 29.159C21.1809 29.581 20.9439 30.1533 20.9439 30.75ZM23.1939 18.75C22.5971 18.75 22.0248 18.5129 21.6029 18.091C21.1809 17.669 20.9439 17.0967 20.9439 16.5C20.9439 15.9033 21.1809 15.331 21.6029 14.909C22.0248 14.4871 22.5971 14.25 23.1939 14.25H39.6939C40.2906 14.25 40.8629 14.4871 41.2849 14.909C41.7068 15.331 41.9439 15.9033 41.9439 16.5C41.9439 17.0967 41.7068 17.669 41.2849 18.091C40.8629 18.5129 40.2906 18.75 39.6939 18.75H23.1939ZM23.1939 4.5C22.5971 4.5 22.0248 4.26295 21.6029 3.84099C21.1809 3.41903 20.9439 2.84674 20.9439 2.25C20.9439 1.65326 21.1809 1.08097 21.6029 0.659009C22.0248 0.237053 22.5971 0 23.1939 0H30.6939C31.2906 0 31.8629 0.237053 32.2849 0.659009C32.7068 1.08097 32.9439 1.65326 32.9439 2.25C32.9439 2.84674 32.7068 3.41903 32.2849 3.84099C31.8629 4.26295 31.2906 4.5 30.6939 4.5H23.1939Z" fill="black"/>
</svg>
