<svg width="36" height="36" viewBox="0 0 36 36" fill="none" xmlns="http://www.w3.org/2000/svg">
<path d="M6.5 0C4.77609 0 3.12279 0.684819 1.90381 1.90381C0.684819 3.12279 0 4.77609 0 6.5V29.5C0 31.2239 0.684819 32.8772 1.90381 34.0962C3.12279 35.3152 4.77609 36 6.5 36H29.5C31.2239 36 32.8772 35.3152 34.0962 34.0962C35.3152 32.8772 36 31.2239 36 29.5V6.5C36 4.77609 35.3152 3.12279 34.0962 1.90381C32.8772 0.684819 31.2239 0 29.5 0H6.5ZM28.56 12.56L15.052 26.054C14.7707 26.3349 14.3895 26.4927 13.992 26.4927C13.5945 26.4927 13.2132 26.3349 12.932 26.054L7.44 20.56C7.17504 20.2756 7.03079 19.8996 7.03765 19.511C7.04451 19.1224 7.20193 18.7516 7.47676 18.4768C7.75158 18.2019 8.12235 18.0445 8.51095 18.0376C8.89956 18.0308 9.27565 18.175 9.56 18.44L13.994 22.872L26.44 10.438C26.5795 10.2988 26.745 10.1884 26.9271 10.1132C27.1092 10.038 27.3044 9.99933 27.5014 9.99952C27.6985 9.99971 27.8935 10.0387 28.0755 10.1143C28.2575 10.1899 28.4228 10.3005 28.562 10.44C28.7012 10.5795 28.8116 10.745 28.8868 10.9271C28.962 11.1092 29.0007 11.3044 29.0005 11.5014C29.0003 11.6985 28.9613 11.8935 28.8857 12.0755C28.8101 12.2575 28.6995 12.4228 28.56 12.562" fill="#C6BC73"/>
</svg>
