<svg width="40" height="36" viewBox="0 0 40 36" fill="none" xmlns="http://www.w3.org/2000/svg">
<path d="M19.7266 33.7266C27.4585 33.7266 33.7266 27.4585 33.7266 19.7266C33.7266 11.9946 27.4585 5.72656 19.7266 5.72656C11.9946 5.72656 5.72656 11.9946 5.72656 19.7266C5.72656 27.4585 11.9946 33.7266 19.7266 33.7266Z" stroke="#878787" stroke-width="4"/>
<path d="M7.658 2C6.30121 2.36338 5.064 3.07758 4.07079 4.07079C3.07758 5.064 2.36338 6.30121 2 7.658M31.798 2C33.1548 2.36338 34.392 3.07758 35.3852 4.07079C36.3784 5.064 37.0926 6.30121 37.456 7.658M19.728 11.728V19.228C19.728 19.504 19.952 19.728 20.228 19.728H25.728" stroke="#878787" stroke-width="4" stroke-linecap="round"/>
</svg>
