<svg width="49" height="34" viewBox="0 0 49 34" fill="none" xmlns="http://www.w3.org/2000/svg">
<path fill-rule="evenodd" clip-rule="evenodd" d="M7.66144 32.84C8.08331 33.2614 8.65519 33.498 9.25144 33.498C9.84769 33.498 10.4196 33.2614 10.8414 32.84L16.8414 26.84C17.0625 26.634 17.2398 26.3856 17.3628 26.1096C17.4858 25.8336 17.5519 25.5357 17.5572 25.2336C17.5625 24.9315 17.507 24.6314 17.3938 24.3512C17.2806 24.071 17.1122 23.8165 16.8986 23.6029C16.6849 23.3892 16.4304 23.2208 16.1502 23.1076C15.8701 22.9945 15.57 22.9389 15.2679 22.9442C14.9658 22.9496 14.6678 23.0157 14.3918 23.1387C14.1158 23.2616 13.8674 23.4389 13.6614 23.66L11.5014 25.82V2.75C11.5014 2.15326 11.2644 1.58097 10.8424 1.15901C10.4205 0.737053 9.84817 0.5 9.25144 0.5C8.6547 0.5 8.0824 0.737053 7.66045 1.15901C7.23849 1.58097 7.00144 2.15326 7.00144 2.75V25.82L4.84144 23.66C4.63545 23.4389 4.38705 23.2616 4.11105 23.1387C3.83505 23.0157 3.53711 22.9496 3.235 22.9442C2.9329 22.9389 2.63281 22.9945 2.35264 23.1076C2.07248 23.2208 1.81798 23.3892 1.60432 23.6029C1.39067 23.8165 1.22223 24.071 1.10907 24.3512C0.995906 24.6314 0.940332 24.9315 0.945663 25.2336C0.950993 25.5357 1.01712 25.8336 1.14009 26.1096C1.26307 26.3856 1.44038 26.634 1.66144 26.84L7.66144 32.84ZM24.2514 29C23.6547 29 23.0824 29.2371 22.6604 29.659C22.2385 30.081 22.0014 30.6533 22.0014 31.25C22.0014 31.8467 22.2385 32.419 22.6604 32.841C23.0824 33.2629 23.6547 33.5 24.2514 33.5H46.7514C47.3482 33.5 47.9205 33.2629 48.3424 32.841C48.7644 32.419 49.0014 31.8467 49.0014 31.25C49.0014 30.6533 48.7644 30.081 48.3424 29.659C47.9205 29.2371 47.3482 29 46.7514 29H24.2514ZM24.2514 19.25C23.6547 19.25 23.0824 19.0129 22.6604 18.591C22.2385 18.169 22.0014 17.5967 22.0014 17C22.0014 16.4033 22.2385 15.831 22.6604 15.409C23.0824 14.9871 23.6547 14.75 24.2514 14.75H40.7514C41.3482 14.75 41.9205 14.9871 42.3424 15.409C42.7644 15.831 43.0014 16.4033 43.0014 17C43.0014 17.5967 42.7644 18.169 42.3424 18.591C41.9205 19.0129 41.3482 19.25 40.7514 19.25H24.2514ZM24.2514 5C23.6547 5 23.0824 4.76295 22.6604 4.34099C22.2385 3.91903 22.0014 3.34674 22.0014 2.75C22.0014 2.15326 22.2385 1.58097 22.6604 1.15901C23.0824 0.737053 23.6547 0.5 24.2514 0.5H31.7514C32.3482 0.5 32.9205 0.737053 33.3424 1.15901C33.7644 1.58097 34.0014 2.15326 34.0014 2.75C34.0014 3.34674 33.7644 3.91903 33.3424 4.34099C32.9205 4.76295 32.3482 5 31.7514 5H24.2514Z" fill="black"/>
</svg>
