<svg width="11" height="11" viewBox="0 0 11 11" fill="none" xmlns="http://www.w3.org/2000/svg">
<path d="M5.5 0C6.95869 0 8.35764 0.579463 9.38909 1.61091C10.4205 2.64236 11 4.04131 11 5.5C11 6.95869 10.4205 8.35764 9.38909 9.38909C8.35764 10.4205 6.95869 11 5.5 11C4.04131 11 2.64236 10.4205 1.61091 9.38909C0.579462 8.35764 0 6.95869 0 5.5C0 4.04131 0.579462 2.64236 1.61091 1.61091C2.64236 0.579463 4.04131 0 5.5 0ZM6.32494 3.37676C6.73348 3.37676 7.06503 3.09314 7.06503 2.67281C7.06503 2.25248 6.7327 1.96886 6.32494 1.96886C5.9164 1.96886 5.58642 2.25248 5.58642 2.67281C5.58642 3.09314 5.9164 3.37676 6.32494 3.37676ZM6.46872 7.79766C6.46872 7.71359 6.49779 7.49518 6.48129 7.37104L5.83548 8.11428C5.70191 8.25491 5.53457 8.35233 5.456 8.3264C5.42036 8.31329 5.39056 8.28788 5.37198 8.25476C5.3534 8.22163 5.34726 8.18296 5.35465 8.1457L6.43101 4.74538C6.519 4.31405 6.27702 3.92043 5.76398 3.87015C5.22266 3.87015 4.42601 4.41933 3.94125 5.11621C3.94125 5.19949 3.92554 5.4069 3.94204 5.53103L4.58707 4.78701C4.72063 4.64795 4.87619 4.54975 4.95475 4.57646C4.99346 4.59035 5.02518 4.61887 5.0431 4.65588C5.06102 4.6929 5.06371 4.73546 5.0506 4.77444L3.98368 8.15827C3.86033 8.55425 4.09367 8.94236 4.65935 9.03035C5.49214 9.03035 5.98397 8.49454 6.4695 7.79766H6.46872Z" fill="#BABABA"/>
</svg>
