<svg width="7" height="8" viewBox="0 0 7 8" fill="none" xmlns="http://www.w3.org/2000/svg">
<path d="M0 2V1.2H0.777778V0.8C0.777778 0.587827 0.859722 0.384344 1.00558 0.234315C1.15145 0.0842854 1.34928 0 1.55556 0H3.88889V2.8L4.86111 2.2L5.83333 2.8V0H6.22222C6.63056 0 7 0.38 7 0.8V7.2C7 7.62 6.63056 8 6.22222 8H1.55556C1.14722 8 0.777778 7.62 0.777778 7.2V6.8H0V6H0.777778V4.4H0V3.6H0.777778V2H0ZM1.55556 3.6H0.777778V4.4H1.55556V3.6ZM1.55556 2V1.2H0.777778V2H1.55556ZM1.55556 6.8V6H0.777778V6.8H1.55556Z" fill="black"/>
</svg>
