<svg width="8" height="8" viewBox="0 0 8 8" fill="none" xmlns="http://www.w3.org/2000/svg">
<path d="M6.00007 0.535957C6.60339 0.884299 7.10526 1.38417 7.45602 1.98608C7.80677 2.58799 7.99424 3.27106 7.99987 3.96769C8.0055 4.66432 7.82909 5.35034 7.4881 5.95783C7.14711 6.56533 6.65338 7.07324 6.05577 7.43128C5.45816 7.78933 4.77741 7.98509 4.08089 7.99918C3.38437 8.01328 2.69625 7.84522 2.08465 7.51165C1.47304 7.17808 0.95916 6.69057 0.593874 6.09736C0.228588 5.50416 0.024564 4.82584 0.00200007 4.12956L0 3.99996L0.00200007 3.87036C0.0244016 3.17955 0.225422 2.50634 0.585463 1.91635C0.945504 1.32637 1.45228 0.839738 2.05638 0.50391C2.66048 0.168082 3.3413 -0.00548431 4.03245 0.000132098C4.7236 0.00574851 5.40151 0.190356 6.00007 0.535957ZM4.00005 1.59996C3.90207 1.59997 3.80751 1.63594 3.7343 1.70104C3.66108 1.76615 3.61431 1.85586 3.60284 1.95316L3.60004 1.99996V3.99996L3.60364 4.05236C3.61276 4.12176 3.63994 4.18755 3.68245 4.24316L3.71725 4.28316L4.91726 5.48316L4.95486 5.51596C5.02501 5.57038 5.11128 5.59992 5.20006 5.59992C5.28885 5.59992 5.37512 5.57038 5.44527 5.51596L5.48287 5.48276L5.51607 5.44516C5.5705 5.37501 5.60004 5.28874 5.60004 5.19996C5.60004 5.11117 5.5705 5.02491 5.51607 4.95476L5.48287 4.91716L4.40005 3.83396V1.99996L4.39725 1.95316C4.38579 1.85586 4.33902 1.76615 4.2658 1.70104C4.19259 1.63594 4.09802 1.59997 4.00005 1.59996Z" fill="black"/>
</svg>
