<svg width="10" height="10" viewBox="0 0 10 10" fill="none" xmlns="http://www.w3.org/2000/svg">
<path fill-rule="evenodd" clip-rule="evenodd" d="M5 8.5717C7.76143 8.5717 10 7.14309 10 4.28585C10 1.42862 7.76143 0 5 0C2.23857 0 0 1.42862 0 4.28585C0 5.82876 0.652857 6.95522 1.68857 7.66453L1.75286 9.20815C1.75918 9.35908 1.80675 9.50539 1.8904 9.63118C1.97404 9.75696 2.09056 9.85742 2.22729 9.92163C2.36402 9.98584 2.51574 10.0113 2.66595 9.99537C2.81615 9.97939 2.95911 9.92255 3.07929 9.83103L4.73786 8.5667C4.825 8.57004 4.91238 8.5717 5 8.5717Z" fill="#878787"/>
</svg>
