<svg width="10" height="9" viewBox="0 0 10 9" fill="none" xmlns="http://www.w3.org/2000/svg">
<path d="M5.78947 2.32917e-09C6.19222 -2.13012e-05 6.57974 0.146096 6.87277 0.408457C7.16579 0.670817 7.34216 1.02959 7.36579 1.41136L7.36842 1.49932V3.49841H8.42105C8.80796 3.49835 9.18143 3.63319 9.47055 3.87734C9.75968 4.12148 9.94433 4.45793 9.98947 4.82281L9.99737 4.90977L10 4.99773L9.98947 5.09569L9.46 7.61055C9.25947 8.42318 8.66947 9.00792 7.98105 8.99992L7.89474 8.99592H3.68421C3.5553 8.9959 3.43088 8.95096 3.33454 8.86962C3.23821 8.78828 3.17666 8.67619 3.16158 8.55462L3.15789 8.49615L3.15842 3.73031C3.15852 3.64267 3.18288 3.55659 3.22907 3.48071C3.27526 3.40483 3.34165 3.34183 3.42158 3.298C3.64595 3.17485 3.83495 3.00115 3.9719 2.79223C4.10885 2.58331 4.18954 2.34559 4.20684 2.10005L4.21053 1.99909V1.49932C4.21053 1.10168 4.37688 0.720318 4.67299 0.439141C4.9691 0.157964 5.37071 2.32917e-09 5.78947 2.32917e-09ZM1.57895 3.49841C1.70786 3.49843 1.83228 3.54337 1.92862 3.62471C2.02495 3.70606 2.0865 3.81814 2.10158 3.93971L2.10526 3.99819V8.49615C2.10525 8.61856 2.05792 8.73671 1.97226 8.82818C1.88659 8.91966 1.76855 8.9781 1.64053 8.99242L1.57895 8.99592H1.05263C0.787065 8.996 0.531281 8.90076 0.336554 8.72929C0.141827 8.55783 0.0225492 8.3228 0.00263169 8.07134L5.27726e-08 7.99637V4.49796C-8.39891e-05 4.24579 0.100214 4.0029 0.280788 3.81799C0.461362 3.63309 0.708866 3.51983 0.973684 3.50091L1.05263 3.49841H1.57895Z" fill="black"/>
</svg>
