<svg width="26" height="45" viewBox="0 0 26 45" fill="none" xmlns="http://www.w3.org/2000/svg">
<path d="M22.3993 1.51072C22.786 1.94284 23.0625 2.46196 23.2054 3.02393C23.3576 3.57149 23.3913 4.14521 23.3044 4.70684C23.2658 4.95072 23.1633 5.18003 23.0074 5.37152L20.8437 8.18581C20.6146 8.50897 20.4866 8.8929 20.476 9.28889C20.4477 10.7597 20.377 12.2163 20.4336 14.3659L20.4194 16.7559C20.4254 17.0745 20.513 17.3861 20.674 17.661L24.6903 24.3361C24.7524 24.3869 24.8093 24.4437 24.86 24.5058C25.0904 25.1045 25.1734 25.7498 25.102 26.3873C25.0306 27.0248 24.807 27.6357 24.4499 28.1686L23.9408 28.6778C23.6611 28.9523 23.3474 29.1899 23.0074 29.3849C22.4414 29.6852 21.8097 29.8407 21.1689 29.8374L13.9989 29.8516L13.9989 43.0603C13.9852 43.4487 13.8212 43.8167 13.5416 44.0866C13.262 44.3565 12.8885 44.5074 12.4998 44.5074C12.1111 44.5074 11.7377 44.3565 11.458 44.0866C11.1784 43.8167 11.0145 43.4487 11.0007 43.0603L11.0007 29.8516H3.92968C3.28713 29.8413 2.6565 29.6764 2.0912 29.3707C1.51418 29.081 1.02572 28.6413 0.676988 28.0979C0.320386 27.5752 0.0970504 26.9732 0.0264495 26.3443C-0.0453257 25.7071 0.0371298 25.062 0.266866 24.4634L0.436571 24.2937L4.31152 17.5903C4.48327 17.2935 4.5758 16.9574 4.58022 16.6145C4.6085 12.7113 4.6085 11.3536 4.52365 9.11919C4.51289 8.74253 4.37874 8.37982 4.14181 8.08681L1.97806 5.24424C1.81481 5.05031 1.70728 4.81569 1.66694 4.56542C1.5418 3.71675 1.69282 2.85032 2.0977 2.09403C2.50258 1.33773 3.13988 0.731641 3.91554 0.365206C4.43882 0.123868 5.00806 -0.00155908 5.58431 -0.00248973L19.4153 0.0257949C19.9849 0.030011 20.5471 0.155836 21.0641 0.39485C21.5812 0.633865 22.0412 0.980557 22.4135 1.41172L22.3993 1.51072Z" fill="black"/>
</svg>
