<svg width="48" height="48" viewBox="0 0 48 48" fill="none" xmlns="http://www.w3.org/2000/svg">
<path d="M17.2126 41.0026C16.8446 43.9479 14.1579 45.0026 11.2126 45.0026C8.26727 45.0026 6.17794 42.6146 6.54594 39.6693L7.87927 27.6693C8.24727 24.7239 10.9339 22.3359 13.8793 22.3359C16.8246 22.3359 22.5033 22.3359 18.5459 27.6693C14.5886 33.0026 17.2126 41.0026 17.2126 41.0026Z" fill="#BE1931"/>
<path d="M47.7651 19.6667C47.7651 28.8693 45.7064 36.3333 43.1651 36.3333C40.6251 36.3333 15.8984 28.8693 15.8984 19.6667C15.8984 10.464 40.6251 3 43.1651 3C45.7064 3 47.7651 10.4627 47.7651 19.6667Z" fill="#CCD6DD"/>
<path d="M43.1664 36.3333C45.7069 36.3333 47.7664 28.8714 47.7664 19.6667C47.7664 10.4619 45.7069 3 43.1664 3C40.6259 3 38.5664 10.4619 38.5664 19.6667C38.5664 28.8714 40.6259 36.3333 43.1664 36.3333Z" fill="#66757F"/>
<path d="M23.901 29.0026L5.23438 27.6693C-1.43229 27.6693 -1.43229 11.6693 5.23438 11.6693L23.901 10.3359C19.901 14.3359 19.901 25.0026 23.901 29.0026Z" fill="#DD2E44"/>
<path d="M41.7656 25.4619C42.8702 25.4619 43.7656 22.8663 43.7656 19.6645C43.7656 16.4627 42.8702 13.8672 41.7656 13.8672C40.6611 13.8672 39.7656 16.4627 39.7656 19.6645C39.7656 22.8663 40.6611 25.4619 41.7656 25.4619Z" fill="#99AAB5"/>
</svg>
