<svg width="12" height="8" viewBox="0 0 12 8" fill="none" xmlns="http://www.w3.org/2000/svg">
<path d="M5.99844 5.59844C6.88209 5.59844 7.59844 4.88209 7.59844 3.99844C7.59844 3.11478 6.88209 2.39844 5.99844 2.39844C5.11478 2.39844 4.39844 3.11478 4.39844 3.99844C4.39844 4.88209 5.11478 5.59844 5.99844 5.59844Z" fill="#878787"/>
<path d="M9.4705 1.1295C8.3775 0.38 7.20775 0 5.994 0C4.90175 0 3.837 0.325 2.82925 0.962C1.813 1.60575 0.81675 2.775 0 4C0.6605 5.1 1.564 6.231 2.505 6.8795C3.5845 7.623 4.75825 8 5.994 8C7.219 8 8.39025 7.62325 9.4765 6.88025C10.4327 6.225 11.3428 5.0955 12 4C11.3405 2.91425 10.4275 1.786 9.4705 1.1295ZM6 6.4C5.52532 6.4 5.06131 6.25924 4.66663 5.99553C4.27195 5.73181 3.96434 5.35698 3.78269 4.91844C3.60104 4.4799 3.55351 3.99734 3.64612 3.53178C3.73872 3.06623 3.9673 2.63859 4.30294 2.30294C4.63859 1.9673 5.06623 1.73872 5.53178 1.64612C5.99734 1.55351 6.4799 1.60104 6.91844 1.78269C7.35698 1.96434 7.73181 2.27195 7.99553 2.66663C8.25924 3.06131 8.4 3.52532 8.4 4C8.39927 4.6363 8.14618 5.24632 7.69625 5.69625C7.24632 6.14618 6.6363 6.39927 6 6.4Z" fill="#878787"/>
</svg>
