<svg width="8" height="8" viewBox="0 0 8 8" fill="none" xmlns="http://www.w3.org/2000/svg">
<path d="M5.2 0C5.29797 1.29242e-05 5.39253 0.0359825 5.46575 0.101086C5.53896 0.16619 5.58574 0.2559 5.5972 0.3532L5.6 0.4V0.8H6C6.30608 0.799983 6.60061 0.91693 6.8233 1.12691C7.046 1.3369 7.18004 1.62404 7.198 1.9296L7.2 2V6.8C7.20002 7.10608 7.08307 7.40061 6.87309 7.6233C6.6631 7.846 6.37596 7.98004 6.0704 7.998L6 8H1.2C0.893916 8.00002 0.599394 7.88307 0.376696 7.67309C0.153997 7.4631 0.019957 7.17596 0.00200005 6.8704L1.86418e-09 6.8V2C-1.70487e-05 1.69392 0.11693 1.39939 0.326913 1.1767C0.536897 0.953997 0.824043 0.819957 1.1296 0.802L1.2 0.8H1.6V0.4C1.60011 0.298048 1.63915 0.199987 1.70914 0.125853C1.77913 0.0517182 1.87478 0.007106 1.97656 0.00113115C2.07833 -0.00484369 2.17855 0.0282698 2.25673 0.0937059C2.33491 0.159142 2.38516 0.251962 2.3972 0.3532L2.4 0.4V0.8H4.8V0.4C4.8 0.293913 4.84214 0.192172 4.91716 0.117157C4.99217 0.0421427 5.09391 0 5.2 0ZM6.4 2.8H0.8V6.65C0.8 6.932 0.9544 7.1644 1.1532 7.1964L1.2 7.2H6C6.2052 7.2 6.3744 6.988 6.3972 6.714L6.4 6.65V2.8Z" fill="#DD9000"/>
</svg>
