<svg width="4" height="8" viewBox="0 0 4 8" fill="none" xmlns="http://www.w3.org/2000/svg">
<path d="M2.464 4.45541L2.8 4.93359H2.2C2.14 5.96205 2 6.98672 1.8 8L1.4 7.93928C1.6 6.94497 1.736 5.94307 1.8 4.93359H1.2L1.536 4.45541C0.656 4.09488 0 2.79317 0 1.89753C0 1.39428 0.210714 0.911631 0.585786 0.555775C0.960859 0.199918 1.46957 0 2 0C2.26264 0 2.52272 0.0490812 2.76537 0.144441C3.00802 0.239801 3.2285 0.379572 3.41421 0.555775C3.59993 0.731977 3.74725 0.941159 3.84776 1.17138C3.94827 1.4016 4 1.64835 4 1.89753C4 2.79317 3.344 4.09488 2.464 4.45541Z" fill="#FF0000"/>
</svg>
