<svg width="8" height="8" viewBox="0 0 8 8" fill="none" xmlns="http://www.w3.org/2000/svg">
<path d="M2.85547 1.14286C2.85547 0.839753 2.97588 0.549062 3.1902 0.334735C3.40453 0.120408 3.69522 0 3.99833 0C4.30143 0 4.59212 0.120408 4.80645 0.334735C5.02078 0.549062 5.14118 0.839753 5.14118 1.14286V6.85714C5.14118 7.16025 5.02078 7.45094 4.80645 7.66527C4.59212 7.87959 4.30143 8 3.99833 8C3.69522 8 3.40453 7.87959 3.1902 7.66527C2.97588 7.45094 2.85547 7.16025 2.85547 6.85714V1.14286Z" fill="url(#paint0_linear_100_58)"/>
<path d="M6.8577 2.28906C6.5546 2.28906 6.26391 2.40947 6.04958 2.6238C5.83525 2.83812 5.71484 3.12882 5.71484 3.43192V6.86049C5.71484 7.1636 5.83525 7.45429 6.04958 7.66861C6.26391 7.88294 6.5546 8.00335 6.8577 8.00335C7.16081 8.00335 7.4515 7.88294 7.66582 7.66861C7.88015 7.45429 8.00056 7.1636 8.00056 6.86049V3.43192C8.00056 3.12882 7.88015 2.83812 7.66582 2.6238C7.4515 2.40947 7.16081 2.28906 6.8577 2.28906Z" fill="url(#paint1_linear_100_58)"/>
<path d="M1.14286 3.42969C0.839753 3.42969 0.549062 3.5501 0.334735 3.76442C0.120408 3.97875 0 4.26944 0 4.57254V6.85826C0 7.16136 0.120408 7.45205 0.334735 7.66638C0.549062 7.88071 0.839753 8.00112 1.14286 8.00112C1.44596 8.00112 1.73665 7.88071 1.95098 7.66638C2.16531 7.45205 2.28571 7.16136 2.28571 6.85826V4.57254C2.28571 4.26944 2.16531 3.97875 1.95098 3.76442C1.73665 3.5501 1.44596 3.42969 1.14286 3.42969Z" fill="url(#paint2_linear_100_58)"/>
<defs>
<linearGradient id="paint0_linear_100_58" x1="4.9509" y1="6.53314" x2="3.72918" y2="-0.083429" gradientUnits="userSpaceOnUse">
<stop stop-color="#6D37CD"/>
<stop offset="1" stop-color="#EA71EF"/>
</linearGradient>
<linearGradient id="paint1_linear_100_58" x1="7.81027" y1="6.95592" x2="7.17656" y2="2.15192" gradientUnits="userSpaceOnUse">
<stop stop-color="#E23CB4"/>
<stop offset="1" stop-color="#EA71EF"/>
</linearGradient>
<linearGradient id="paint2_linear_100_58" x1="0.285714" y1="3.61997" x2="4.656" y2="6.20512" gradientUnits="userSpaceOnUse">
<stop stop-color="#36DFF1"/>
<stop offset="1" stop-color="#0078D4"/>
</linearGradient>
</defs>
</svg>
