<svg width="2" height="2" viewBox="0 0 2 2" fill="none" xmlns="http://www.w3.org/2000/svg">
<path d="M1.60034 0C1.69831 1.29242e-05 1.79287 0.0359824 1.86609 0.101086C1.9393 0.16619 1.98608 0.2559 1.99754 0.3532L2.00034 0.4V1.6C2.00023 1.70195 1.96119 1.80001 1.8912 1.87415C1.82121 1.94828 1.72556 1.99289 1.62378 1.99887C1.522 2.00484 1.42179 1.97173 1.34361 1.90629C1.26542 1.84086 1.21518 1.74804 1.20314 1.6468L1.20034 1.6V0.8C1.09839 0.799887 1.00033 0.760848 0.926191 0.690861C0.852056 0.620873 0.807444 0.525219 0.801469 0.423442C0.795494 0.321665 0.828608 0.221448 0.894044 0.143267C0.95948 0.0650858 1.0523 0.0148414 1.15354 0.00279999L1.20034 0H1.60034Z" fill="#DD9000"/>
</svg>
