<svg width="8" height="8" viewBox="0 0 8 8" fill="none" xmlns="http://www.w3.org/2000/svg">
<path d="M7.37778 8L4.57778 5.2C4.35556 5.37778 4.1 5.51852 3.81111 5.62222C3.52222 5.72593 3.21482 5.77778 2.88889 5.77778C2.08148 5.77778 1.39822 5.49807 0.839111 4.93867C0.28 4.37926 0.000296531 3.696 2.35156e-07 2.88889C-0.000296061 2.08178 0.279408 1.39852 0.839111 0.839111C1.39882 0.279704 2.08207 0 2.88889 0C3.6957 0 4.37911 0.279704 4.93911 0.839111C5.49911 1.39852 5.77867 2.08178 5.77778 2.88889C5.77778 3.21481 5.72593 3.52222 5.62222 3.81111C5.51852 4.1 5.37778 4.35556 5.2 4.57778L8 7.37778L7.37778 8ZM2.88889 4.88889C3.44444 4.88889 3.91674 4.69452 4.30578 4.30578C4.69482 3.91704 4.88919 3.44474 4.88889 2.88889C4.88859 2.33304 4.69422 1.86089 4.30578 1.47244C3.91733 1.084 3.44504 0.889481 2.88889 0.888889C2.33274 0.888296 1.86059 1.08281 1.47244 1.47244C1.0843 1.86207 0.889778 2.33422 0.888889 2.88889C0.888 3.44356 1.08252 3.91585 1.47244 4.30578C1.86237 4.6957 2.33452 4.89007 2.88889 4.88889Z" fill="#7495CC"/>
</svg>
