<svg width="5" height="10" viewBox="0 0 5 10" fill="none" xmlns="http://www.w3.org/2000/svg">
<path d="M2.5 6.875C2.86836 6.875 3.22163 6.71038 3.48209 6.41735C3.74256 6.12433 3.88889 5.7269 3.88889 5.3125V1.5625C3.88889 1.1481 3.74256 0.750671 3.48209 0.457646C3.22163 0.16462 2.86836 0 2.5 0C2.13164 0 1.77837 0.16462 1.51791 0.457646C1.25744 0.750671 1.11111 1.1481 1.11111 1.5625V5.3125C1.11111 5.7269 1.25744 6.12433 1.51791 6.41735C1.77837 6.71038 2.13164 6.875 2.5 6.875ZM4.44444 4.375V5.3125C4.44444 5.89266 4.23958 6.44906 3.87493 6.8593C3.51028 7.26953 3.0157 7.5 2.5 7.5C1.9843 7.5 1.48972 7.26953 1.12507 6.8593C0.760416 6.44906 0.555556 5.89266 0.555556 5.3125V4.375H0V5.3125C1.85785e-05 6.0043 0.226674 6.67182 0.636635 7.18745C1.0466 7.70307 1.6111 8.03063 2.22222 8.1075V9.375H1.11111V10H3.88889V9.375H2.77778V8.1075C3.3889 8.03063 3.9534 7.70307 4.36336 7.18745C4.77333 6.67182 4.99998 6.0043 5 5.3125V4.375H4.44444Z" fill="#595959"/>
</svg>
