<svg width="8" height="8" viewBox="0 0 8 8" fill="none" xmlns="http://www.w3.org/2000/svg">
<path d="M4 2.66667C4.17756 2.66265 4.35413 2.69415 4.51935 2.75931C4.68457 2.82448 4.8351 2.92199 4.96212 3.04614C5.08913 3.17028 5.19006 3.31854 5.25898 3.48223C5.32791 3.64592 5.36343 3.82172 5.36348 3.99933C5.36352 4.17693 5.32808 4.35275 5.25924 4.51647C5.1904 4.68019 5.08954 4.82851 4.96259 4.95272C4.83564 5.07692 4.68516 5.17451 4.51997 5.23976C4.35478 5.30501 4.17823 5.33659 4.00067 5.33267C3.65229 5.32496 3.32078 5.18118 3.07709 4.93211C2.8334 4.68303 2.6969 4.34845 2.69681 3.99999C2.69672 3.65153 2.83305 3.31689 3.07662 3.06769C3.32019 2.81849 3.65163 2.67454 4 2.66667ZM4 4.66667C3.82319 4.66667 3.65362 4.59643 3.5286 4.4714C3.40357 4.34638 3.33333 4.17681 3.33333 4C3.33333 3.82319 3.40357 3.65362 3.5286 3.5286C3.65362 3.40357 3.82319 3.33333 4 3.33333C4.17681 3.33333 4.34638 3.40357 4.4714 3.5286C4.59643 3.65362 4.66667 3.82319 4.66667 4C4.66667 4.17681 4.59643 4.34638 4.4714 4.4714C4.34638 4.59643 4.17681 4.66667 4 4.66667ZM4 0C3.47471 -7.82739e-09 2.95457 0.103463 2.46927 0.304482C1.98396 0.505501 1.54301 0.800139 1.17157 1.17157C0.800139 1.54301 0.505501 1.98396 0.304482 2.46927C0.103463 2.95457 0 3.47471 0 4C0 4.52529 0.103463 5.04543 0.304482 5.53073C0.505501 6.01604 0.800139 6.45699 1.17157 6.82843C1.54301 7.19986 1.98396 7.4945 2.46927 7.69552C2.95457 7.89654 3.47471 8 4 8C5.06087 8 6.07828 7.57857 6.82843 6.82843C7.57857 6.07828 8 5.06087 8 4C8 2.93913 7.57857 1.92172 6.82843 1.17157C6.07828 0.421427 5.06087 1.58081e-08 4 0Z" fill="#8BCECE"/>
</svg>
