<svg width="8" height="9" viewBox="0 0 8 9" fill="none" xmlns="http://www.w3.org/2000/svg">
<path d="M7.811 0.108484C7.86994 0.155306 7.91755 0.214833 7.95028 0.282624C7.983 0.350415 8 0.42472 8 0.499997V6.33369C8 6.3537 7.99883 6.37386 7.9965 6.3942C7.99883 6.4292 8 6.46453 8 6.5002C7.99983 6.81859 7.89837 7.12867 7.71028 7.38557C7.5222 7.64246 7.25726 7.83285 6.9538 7.92917C6.65033 8.0255 6.3241 8.02276 6.02229 7.92136C5.72049 7.81996 5.45878 7.62516 5.27503 7.36515C5.09128 7.10513 4.99503 6.7934 5.0002 6.47505C5.00537 6.1567 5.1117 5.84825 5.3038 5.59434C5.49589 5.34044 5.7638 5.15424 6.06874 5.0627C6.37367 4.97116 6.69983 4.97902 7 5.08515V3.13009L3 4.06362V7.50173C2.99962 7.82008 2.89797 8.13006 2.70977 8.38681C2.52156 8.64356 2.25655 8.83377 1.95308 8.92993C1.64961 9.02609 1.32342 9.02321 1.0217 8.9217C0.719981 8.82019 0.458378 8.62531 0.27474 8.36527C0.0911024 8.10523 -0.00504645 7.79351 0.000204155 7.47521C0.00545476 7.1569 0.111833 6.84852 0.303947 6.59468C0.496062 6.34084 0.76395 6.1547 1.06885 6.0632C1.37376 5.97169 1.69987 5.97957 2 6.08569V1.66654C1.99999 1.55365 2.03818 1.44407 2.10835 1.35565C2.17853 1.26722 2.27656 1.20515 2.3865 1.17952L7.3865 0.0129805C7.45917 -0.00390856 7.53469 -0.0043219 7.60754 0.0117708C7.68039 0.0278635 7.74871 0.0600543 7.8075 0.105984L7.811 0.108484Z" fill="#A0076D"/>
</svg>
