<svg width="32" height="22" viewBox="0 0 32 22" fill="none" xmlns="http://www.w3.org/2000/svg">
<path fill-rule="evenodd" clip-rule="evenodd" d="M3 11C3 10.4696 3.21071 9.96086 3.58579 9.58579C3.96086 9.21071 4.46957 9 5 9L30 9C30.5304 9 31.0391 9.21071 31.4142 9.58579C31.7893 9.96086 32 10.4696 32 11C32 11.5304 31.7893 12.0391 31.4142 12.4142C31.0391 12.7893 30.5304 13 30 13L5 13C4.46957 13 3.96086 12.7893 3.58579 12.4142C3.21071 12.0391 3 11.5304 3 11Z" fill="#878787"/>
<path fill-rule="evenodd" clip-rule="evenodd" d="M1.39823e-07 10.9996C0.000113391 10.4692 0.210901 9.96058 0.586 9.5856L9.586 0.585592C9.96102 0.210311 10.4698 -0.000623556 11.0003 -0.000811104C11.5308 -0.000998652 12.0397 0.209576 12.415 0.584592C12.7903 0.959608 13.0012 1.46835 13.0014 1.99889C13.0016 2.52943 12.791 3.03831 12.416 3.41359L4.828 10.9996L12.414 18.5856C12.789 18.9609 12.9996 19.4698 12.9994 20.0003C12.9992 20.5308 12.7883 21.0396 12.413 21.4146C12.0377 21.7896 11.5288 22.0002 10.9983 22C10.4678 21.9998 9.95902 21.7889 9.584 21.4136L0.584 12.4136C0.209634 12.0383 -0.000417164 11.5297 1.39823e-07 10.9996Z" fill="#878787"/>
</svg>
