<svg width="15" height="15" viewBox="0 0 15 15" fill="none" xmlns="http://www.w3.org/2000/svg">
<path d="M13.5938 7.5C13.5937 5.88384 12.9517 4.33387 11.8089 3.19107C10.6661 2.04827 9.11616 1.40625 7.5 1.40625C5.88384 1.40625 4.33387 2.04827 3.19107 3.19107C2.04827 4.33387 1.40625 5.88384 1.40625 7.5C1.40625 9.11616 2.04827 10.6661 3.19107 11.8089C4.33387 12.9517 5.88384 13.5938 7.5 13.5938C9.11616 13.5938 10.6661 12.9517 11.8089 11.8089C12.9517 10.6661 13.5938 9.11616 13.5938 7.5ZM0 7.5C0 5.51088 0.790176 3.60322 2.1967 2.1967C3.60322 0.790176 5.51088 0 7.5 0C9.48912 0 11.3968 0.790176 12.8033 2.1967C14.2098 3.60322 15 5.51088 15 7.5C15 9.48912 14.2098 11.3968 12.8033 12.8033C11.3968 14.2098 9.48912 15 7.5 15C5.51088 15 3.60322 14.2098 2.1967 12.8033C0.790176 11.3968 0 9.48912 0 7.5ZM5.19434 9.35742C5.63379 9.81445 6.39844 10.3125 7.5 10.3125C8.60156 10.3125 9.36621 9.81445 9.80566 9.35742C10.0752 9.07617 10.5205 9.06738 10.7988 9.33691C11.0771 9.60645 11.0889 10.0518 10.8193 10.3301C10.1719 11.0039 9.06152 11.7188 7.5 11.7188C5.93848 11.7188 4.82812 11.0039 4.18066 10.3301C3.91113 10.0488 3.91992 9.60352 4.20117 9.33691C4.48242 9.07031 4.92773 9.07617 5.19434 9.35742ZM4.21875 6.09375C4.21875 5.84511 4.31752 5.60665 4.49334 5.43084C4.66915 5.25502 4.90761 5.15625 5.15625 5.15625C5.40489 5.15625 5.64335 5.25502 5.81916 5.43084C5.99498 5.60665 6.09375 5.84511 6.09375 6.09375C6.09375 6.34239 5.99498 6.58085 5.81916 6.75666C5.64335 6.93248 5.40489 7.03125 5.15625 7.03125C4.90761 7.03125 4.66915 6.93248 4.49334 6.75666C4.31752 6.58085 4.21875 6.34239 4.21875 6.09375ZM9.84375 5.15625C10.0924 5.15625 10.3308 5.25502 10.5067 5.43084C10.6825 5.60665 10.7812 5.84511 10.7812 6.09375C10.7812 6.34239 10.6825 6.58085 10.5067 6.75666C10.3308 6.93248 10.0924 7.03125 9.84375 7.03125C9.59511 7.03125 9.35665 6.93248 9.18084 6.75666C9.00502 6.58085 8.90625 6.34239 8.90625 6.09375C8.90625 5.84511 9.00502 5.60665 9.18084 5.43084C9.35665 5.25502 9.59511 5.15625 9.84375 5.15625Z" fill="#878787"/>
</svg>
