<svg width="13" height="15" viewBox="0 0 13 15" fill="none" xmlns="http://www.w3.org/2000/svg">
<path fill-rule="evenodd" clip-rule="evenodd" d="M8.93762 0C9.04432 -2.30617e-09 9.14998 0.0215549 9.24855 0.0634338C9.34713 0.105313 9.4367 0.166695 9.51215 0.244078C9.5876 0.32146 9.64745 0.413326 9.68828 0.514431C9.72911 0.615535 9.75013 0.723898 9.75013 0.833333C9.75013 0.942768 9.72911 1.05113 9.68828 1.15224C9.64745 1.25334 9.5876 1.34521 9.51215 1.42259C9.4367 1.49997 9.34713 1.56135 9.24855 1.60323C9.14998 1.64511 9.04432 1.66667 8.93762 1.66667H1.62502V12.5C1.62502 12.721 1.71063 12.933 1.863 13.0893C2.01538 13.2455 2.22204 13.3333 2.43753 13.3333H8.93762C9.15311 13.3333 9.35978 13.4211 9.51215 13.5774C9.66453 13.7337 9.75013 13.9457 9.75013 14.1667C9.75013 14.3877 9.66453 14.5996 9.51215 14.7559C9.35978 14.9122 9.15311 15 8.93762 15H2.43753C1.79106 15 1.17106 14.7366 0.713937 14.2678C0.256811 13.7989 0 13.163 0 12.5V0.833333C0 0.61232 0.0856037 0.400358 0.237979 0.244078C0.390354 0.0877975 0.59702 0 0.812511 0H8.93762ZM10.3246 4.41083C10.211 4.29438 10.0663 4.21505 9.90879 4.18289C9.75128 4.15072 9.58801 4.16715 9.43959 4.23011C9.29118 4.29306 9.16429 4.39972 9.07495 4.5366C8.9856 4.67348 8.93781 4.83445 8.93762 4.99917V6.66583H4.06255C3.84706 6.66583 3.6404 6.75363 3.48802 6.90991C3.33565 7.06619 3.25004 7.27815 3.25004 7.49917C3.25004 7.72018 3.33565 7.93214 3.48802 8.08842C3.6404 8.2447 3.84706 8.3325 4.06255 8.3325H8.93762V9.99917C8.93765 10.164 8.98532 10.325 9.07461 10.462C9.16389 10.5991 9.29077 10.7058 9.43922 10.7689C9.58767 10.832 9.75101 10.8485 9.9086 10.8163C10.0662 10.7842 10.2109 10.7048 10.3246 10.5883L12.7621 8.08833C12.9144 7.93206 13 7.72014 13 7.49917C13 7.2782 12.9144 7.06627 12.7621 6.91L10.3246 4.41083Z" fill="#878787"/>
</svg>
