<svg width="31" height="33" viewBox="0 0 31 33" fill="none" xmlns="http://www.w3.org/2000/svg">
<path d="M15.5 0C13.5109 0 11.6032 0.790176 10.1967 2.1967C8.79018 3.60322 8 5.51088 8 7.5C8 9.48912 8.79018 11.3968 10.1967 12.8033C11.6032 14.2098 13.5109 15 15.5 15C17.4891 15 19.3968 14.2098 20.8033 12.8033C22.2098 11.3968 23 9.48912 23 7.5C23 5.51088 22.2098 3.60322 20.8033 2.1967C19.3968 0.790176 17.4891 0 15.5 0ZM7.5 19C5.51088 19 3.60322 19.7902 2.1967 21.1967C0.790176 22.6032 0 24.5109 0 26.5V28.876C0 30.384 1.092 31.668 2.58 31.91C11.136 33.308 19.864 33.308 28.42 31.91C29.1396 31.7916 29.7939 31.4217 30.2664 30.8661C30.7388 30.3105 30.9988 29.6053 31 28.876V26.5C31 24.5109 30.2098 22.6032 28.8033 21.1967C27.3968 19.7902 25.4891 19 23.5 19H22.82C22.4467 19.0013 22.084 19.0587 21.732 19.172L20 19.738C17.0759 20.6926 13.9241 20.6926 11 19.738L9.268 19.172C8.91694 19.0594 8.55067 19.0014 8.182 19H7.5Z" fill="black"/>
</svg>
