<svg width="13" height="15" viewBox="0 0 13 15" fill="none" xmlns="http://www.w3.org/2000/svg">
<path fill-rule="evenodd" clip-rule="evenodd" d="M4.06238 15C3.95568 15 3.85002 14.9784 3.75145 14.9366C3.65287 14.8947 3.5633 14.8333 3.48785 14.7559C3.4124 14.6785 3.35255 14.5867 3.31172 14.4856C3.27089 14.3845 3.24987 14.2761 3.24987 14.1667C3.24987 14.0572 3.27089 13.9489 3.31172 13.8478C3.35255 13.7467 3.4124 13.6548 3.48785 13.5774C3.5633 13.5 3.65287 13.4386 3.75145 13.3968C3.85002 13.3549 3.95568 13.3333 4.06238 13.3333L11.375 13.3333L11.375 2.5C11.375 2.27899 11.2894 2.06702 11.137 1.91074C10.9846 1.75446 10.778 1.66667 10.5625 1.66667L4.06238 1.66667C3.84689 1.66667 3.64023 1.57887 3.48785 1.42259C3.33548 1.26631 3.24987 1.05435 3.24987 0.833333C3.24987 0.612319 3.33548 0.400357 3.48785 0.244077C3.64023 0.0877966 3.84689 -8.0019e-07 4.06238 -7.81351e-07L10.5625 -2.13096e-07C11.2089 -1.56579e-07 11.8289 0.263392 12.2861 0.732233C12.7432 1.20107 13 1.83696 13 2.5L13 14.1667C13 14.3877 12.9144 14.5996 12.762 14.7559C12.6096 14.9122 12.403 15 12.1875 15L4.06238 15Z" fill="#878787"/>
<path d="M6.65875 4.07909C6.81626 4.11126 6.96095 4.19058 7.07453 4.30704L9.51207 6.80621C9.66439 6.96248 9.74996 7.1744 9.74996 7.39537C9.74996 7.61634 9.66439 7.82827 9.51207 7.98454L7.07453 10.4845C6.9609 10.601 6.81614 10.6804 6.65855 10.7125C6.50096 10.7447 6.33762 10.7282 6.18918 10.6651C6.04073 10.602 5.91385 10.4953 5.82456 10.3583C5.73528 10.2212 5.68761 10.0602 5.68758 9.89537L5.68758 8.22871L0.812512 8.22871C0.597021 8.22871 0.390354 8.14091 0.237979 7.98463C0.0856033 7.82835 6.26174e-07 7.61639 6.64818e-07 7.39537C7.03461e-07 7.17436 0.0856033 6.9624 0.237979 6.80612C0.390354 6.64984 0.597021 6.56204 0.812512 6.56204L5.68758 6.56204L5.68758 4.89537C5.68777 4.73065 5.73556 4.56969 5.8249 4.43281C5.91425 4.29592 6.04114 4.18927 6.18955 4.12632C6.33796 4.06336 6.50124 4.04693 6.65875 4.07909Z" fill="#878787"/>
</svg>
