<svg width="17" height="17" viewBox="0 0 17 17" fill="none" xmlns="http://www.w3.org/2000/svg">
<path d="M10.2128 6.78736C9.89795 6.47246 9.52419 6.22267 9.11282 6.05225C8.70145 5.88182 8.26053 5.7941 7.81525 5.7941C7.36997 5.7941 6.92905 5.88182 6.51768 6.05225C6.10631 6.22267 5.73255 6.47246 5.41774 6.78736L1.99273 10.2131C1.357 10.849 0.999906 11.7113 1 12.6103C1.00009 13.5094 1.35737 14.3717 1.99323 15.0073C2.62909 15.643 3.49144 16.0001 4.39059 16C5.28974 15.9999 6.15202 15.6427 6.78774 15.0068L7.10875 14.7029M6.78774 10.2131C7.10255 10.528 7.47631 10.7778 7.88768 10.9483C8.29906 11.1187 8.73997 11.2064 9.18525 11.2064C9.63053 11.2064 10.0715 11.1187 10.4828 10.9483C10.8942 10.7778 11.268 10.528 11.5828 10.2131L15.0068 6.78736C15.6426 6.15167 15.9999 5.28945 16 4.39036C16.0001 3.49128 15.643 2.62898 15.0073 1.99316C14.3715 1.35734 13.5093 1.00009 12.6101 1C11.711 0.999906 10.8486 1.35698 10.2128 1.99266L9.18475 2.9536" stroke="#1CA6FC" stroke-width="2" stroke-linecap="round" stroke-linejoin="round"/>
</svg>
