<svg width="42" height="38" viewBox="0 0 42 38" fill="none" xmlns="http://www.w3.org/2000/svg">
<path d="M20 0C31 0 40 7.16 40 16C40 17.16 39.84 18.28 39.56 19.36C38.38 18.76 37.1 18.32 35.76 18.12C35.92 17.44 36 16.72 36 16C36 9.38 28.84 4 20 4C11.16 4 4 9.38 4 16C4 22.62 11.16 28 20 28L22.18 27.9L22 30L22.16 31.9L20 32C17.62 32 15.24 31.66 12.94 31C9.28 34 4.74 35.78 0 36C4.66 31.34 5.5 28.2 5.5 27C3.83003 25.6844 2.47115 24.0163 1.5204 22.1148C0.569651 20.2133 0.0504929 18.1253 0 16C0 7.16 9 0 20 0ZM32 22H36V28H42V32H36V38H32V32H26V28H32V22Z" fill="black"/>
</svg>
