<svg width="42" height="42" viewBox="0 0 42 42" fill="none" xmlns="http://www.w3.org/2000/svg">
<path d="M1.74361e-05 21C1.74361e-05 9.402 9.40202 0 21 0C32.598 0 42 9.402 42 21C42 32.598 32.598 42 21 42C17.448 42 14.097 41.1165 11.16 39.5565L2.86802 41.9145C2.48264 42.0237 2.07508 42.0281 1.68744 41.9272C1.29981 41.8263 0.946141 41.6237 0.662976 41.3404C0.379812 41.057 0.177415 40.7033 0.0766911 40.3156C-0.024033 39.9279 -0.0194326 39.5203 0.0900173 39.135L2.44802 30.8445C0.836325 27.8137 -0.00441508 24.4327 1.74361e-05 21Z" fill="url(#paint0_linear_401_14)"/>
<path d="M16.2412 19.2988C16.9896 19.2988 17.6287 19.3633 18.1587 19.4922C18.6886 19.6211 19.0933 19.8109 19.3726 20.0615C19.6519 20.3122 19.7933 20.6165 19.7969 20.9746C19.7933 21.3291 19.6519 21.6317 19.3726 21.8823C19.0933 22.1294 18.6886 22.3174 18.1587 22.4463C17.6287 22.5752 16.9896 22.6396 16.2412 22.6396C15.4893 22.6396 14.8465 22.5752 14.313 22.4463C13.7795 22.3174 13.373 22.1294 13.0938 21.8823C12.8145 21.6317 12.6748 21.3291 12.6748 20.9746C12.6748 20.6165 12.8145 20.3122 13.0938 20.0615C13.373 19.8109 13.7795 19.6211 14.313 19.4922C14.8465 19.3633 15.4893 19.2988 16.2412 19.2988ZM16.2412 20.3086C15.5215 20.3086 14.9862 20.3641 14.6353 20.4751C14.2843 20.5825 14.1107 20.749 14.1143 20.9746C14.1107 21.2074 14.2808 21.3774 14.6245 21.4849C14.9718 21.5887 15.5107 21.6406 16.2412 21.6406C16.9753 21.6406 17.5142 21.5887 17.8579 21.4849C18.2052 21.3774 18.3789 21.2074 18.3789 20.9746C18.3789 20.749 18.2035 20.5825 17.8525 20.4751C17.5016 20.3641 16.9645 20.3086 16.2412 20.3086ZM20.6992 24.1221H18.4648V24.8096H19.6143V27.3018H14.168V27.8926H19.8721V28.9238H12.8252V26.3457H18.2607V25.8086H12.8145V24.8096H14.0283V24.1221H11.7832V23.0479H20.6992V24.1221ZM17.1006 24.8096V24.1221H15.3818V24.8096H17.1006ZM30.2061 25.4756H21.2686V24.4014H25.0498V23.6816H22.3857V19.4277H29.1641V20.4912H23.7607V21.0391H28.9385V22.0488H23.7607V22.6396H29.25V23.6816H26.4248V24.4014H30.2061V25.4756ZM29.1104 28.9883H27.7246V27.1514H22.2783V26.0771H29.1104V28.9883Z" fill="white"/>
<path d="M13.1436 14.4648L13.9053 15.9492H13.9346L14.6963 14.4648H15.624L14.335 16.8037V18H13.5049V16.8037L12.2109 14.4648H13.1436ZM17.4893 15.3486H18.3096V18H17.5283V17.5117H17.499C17.4388 17.6729 17.3379 17.8006 17.1963 17.895C17.0547 17.9878 16.8854 18.0342 16.6885 18.0342C16.5094 18.0342 16.3507 17.9935 16.2124 17.9121C16.0757 17.8291 15.9691 17.7127 15.8926 17.563C15.8177 17.4116 15.7803 17.2367 15.7803 17.0381V15.3486H16.6055V16.8818C16.6055 17.0267 16.6429 17.1414 16.7178 17.2261C16.7943 17.3091 16.8984 17.3506 17.0303 17.3506C17.1165 17.3506 17.1938 17.3311 17.2622 17.292C17.3322 17.2529 17.3875 17.1968 17.4282 17.1235C17.4689 17.0487 17.4893 16.96 17.4893 16.8574V15.3486ZM19.667 18H18.8418V14.4648H19.667V18ZM20.0771 14.4648H23.0508V15.1436H21.9766V18H21.1514V15.1436H20.0771V14.4648ZM22.9775 17.2627C22.9775 16.9893 23.0679 16.7874 23.2485 16.6572C23.4292 16.527 23.666 16.4521 23.959 16.4326C24.1055 16.4229 24.2845 16.4147 24.4961 16.4082C24.5221 16.4049 24.5547 16.4033 24.5938 16.4033V16.1885C24.5938 16.0957 24.562 16.0249 24.4985 15.9761C24.4351 15.9256 24.3464 15.9004 24.2324 15.9004C24.1217 15.9004 24.033 15.9232 23.9663 15.9688C23.8996 16.0143 23.8581 16.0811 23.8418 16.1689H23.0752C23.0866 16.0094 23.1387 15.8654 23.2314 15.7368C23.3258 15.6066 23.4593 15.5041 23.6318 15.4292C23.806 15.3527 24.0127 15.3145 24.252 15.3145C24.4733 15.3145 24.6719 15.3494 24.8477 15.4194C25.0251 15.4878 25.1642 15.5887 25.2651 15.7222C25.3677 15.854 25.4189 16.0127 25.4189 16.1982V18H24.6426V17.6289H24.623C24.5482 17.7656 24.4465 17.8698 24.3179 17.9414C24.1893 18.013 24.0339 18.0488 23.8516 18.0488C23.679 18.0488 23.5269 18.0195 23.395 17.9609C23.2648 17.9023 23.1623 17.8145 23.0874 17.6973C23.0142 17.5785 22.9775 17.4336 22.9775 17.2627ZM23.7588 17.2285C23.7588 17.3164 23.7897 17.384 23.8516 17.4312C23.915 17.4784 23.998 17.502 24.1006 17.502C24.1934 17.502 24.278 17.4832 24.3545 17.4458C24.431 17.4084 24.4912 17.3563 24.5352 17.2896C24.5791 17.2212 24.6003 17.1439 24.5986 17.0576V16.8867H24.5498L24.0957 16.916C23.9915 16.929 23.9093 16.9632 23.8491 17.0186C23.7889 17.0723 23.7588 17.1423 23.7588 17.2285ZM26.7471 18H25.9219V14.4648H26.7471V18ZM27.2744 14.4648H28.0996V16.3105H28.1338L28.9004 15.3486H29.8379L28.8833 16.5034L29.877 18H28.9248L28.2729 16.9844L28.0996 17.1919V18H27.2744V14.4648Z" fill="white"/>
<defs>
<linearGradient id="paint0_linear_401_14" x1="1.50002" y1="7.875" x2="38.1705" y2="70.392" gradientUnits="userSpaceOnUse">
<stop stop-color="#0FAFFF"/>
<stop offset="1" stop-color="#CC23D1"/>
</linearGradient>
</defs>
</svg>
