<svg width="36" height="36" viewBox="0 0 36 36" fill="none" xmlns="http://www.w3.org/2000/svg">
<path d="M8 36V32H16V25.8C14.3667 25.4333 12.9087 24.742 11.626 23.726C10.3433 22.71 9.40133 21.4347 8.8 19.9C6.3 19.6 4.20867 18.5087 2.526 16.626C0.843333 14.7433 0.00133333 12.5347 0 10V8C0 6.9 0.392 5.95867 1.176 5.176C1.96 4.39333 2.90133 4.00133 4 4H8V0H28V4H32C33.1 4 34.042 4.392 34.826 5.176C35.61 5.96 36.0013 6.90133 36 8V10C36 12.5333 35.158 14.742 33.474 16.626C31.79 18.51 29.6987 19.6013 27.2 19.9C26.6 21.4333 25.6587 22.7087 24.376 23.726C23.0933 24.7433 21.6347 25.4347 20 25.8V32H28V36H8ZM8 15.6V8H4V10C4 11.2667 4.36667 12.4087 5.1 13.426C5.83333 14.4433 6.8 15.168 8 15.6ZM28 15.6C29.2 15.1667 30.1667 14.4413 30.9 13.424C31.6333 12.4067 32 11.2653 32 10V8H28V15.6Z" fill="#AC9306"/>
<path d="M19.6758 18H17.4375V11.5781H17.3906L15.5156 12.7031V10.793L17.6133 9.51562H19.6758V18Z" fill="white"/>
</svg>
