<svg width="36" height="36" viewBox="0 0 36 36" fill="none" xmlns="http://www.w3.org/2000/svg">
<path d="M8 36V32H16V25.8C14.3667 25.4333 12.9087 24.742 11.626 23.726C10.3433 22.71 9.40133 21.4347 8.8 19.9C6.3 19.6 4.20867 18.5087 2.526 16.626C0.843333 14.7433 0.00133333 12.5347 0 10V8C0 6.9 0.392 5.95867 1.176 5.176C1.96 4.39333 2.90133 4.00133 4 4H8V0H28V4H32C33.1 4 34.042 4.392 34.826 5.176C35.61 5.96 36.0013 6.90133 36 8V10C36 12.5333 35.158 14.742 33.474 16.626C31.79 18.51 29.6987 19.6013 27.2 19.9C26.6 21.4333 25.6587 22.7087 24.376 23.726C23.0933 24.7433 21.6347 25.4347 20 25.8V32H28V36H8ZM8 15.6V8H4V10C4 11.2667 4.36667 12.4087 5.1 13.426C5.83333 14.4433 6.8 15.168 8 15.6ZM28 15.6C29.2 15.1667 30.1667 14.4413 30.9 13.424C31.6333 12.4067 32 11.2653 32 10V8H28V15.6Z" fill="#8A8A8A"/>
<path d="M14.8184 16.3945L17.9707 13.7461C18.2168 13.5352 18.4121 13.3535 18.5566 13.2012C18.7012 13.0488 18.8125 12.8906 18.8906 12.7266C18.9727 12.5625 19.0137 12.3828 19.0137 12.1875C19.0137 11.8633 18.9082 11.6055 18.6973 11.4141C18.4902 11.2188 18.2207 11.1211 17.8887 11.1211C17.5566 11.1211 17.2891 11.2207 17.0859 11.4199C16.8867 11.6191 16.7871 11.8984 16.7871 12.2578H14.666C14.666 11.6758 14.7988 11.1699 15.0645 10.7402C15.3301 10.3066 15.7051 9.97461 16.1895 9.74414C16.6777 9.51367 17.2441 9.39844 17.8887 9.39844C18.5488 9.39844 19.127 9.50586 19.623 9.7207C20.123 9.93555 20.5078 10.2402 20.7773 10.6348C21.0469 11.0254 21.1816 11.4805 21.1816 12C21.1816 12.3438 21.1113 12.6738 20.9707 12.9902C20.834 13.3066 20.5918 13.6582 20.2441 14.0449C19.9004 14.4316 19.4121 14.8906 18.7793 15.4219L17.9238 16.1602V16.207H21.2754V18H14.8184V16.3945Z" fill="white"/>
</svg>
