<svg width="36" height="36" viewBox="0 0 36 36" fill="none" xmlns="http://www.w3.org/2000/svg">
<path d="M8 36V32H16V25.8C14.3667 25.4333 12.9087 24.742 11.626 23.726C10.3433 22.71 9.40133 21.4347 8.8 19.9C6.3 19.6 4.20867 18.5087 2.526 16.626C0.843333 14.7433 0.00133333 12.5347 0 10V8C0 6.9 0.392 5.95867 1.176 5.176C1.96 4.39333 2.90133 4.00133 4 4H8V0H28V4H32C33.1 4 34.042 4.392 34.826 5.176C35.61 5.96 36.0013 6.90133 36 8V10C36 12.5333 35.158 14.742 33.474 16.626C31.79 18.51 29.6987 19.6013 27.2 19.9C26.6 21.4333 25.6587 22.7087 24.376 23.726C23.0933 24.7433 21.6347 25.4347 20 25.8V32H28V36H8ZM8 15.6V8H4V10C4 11.2667 4.36667 12.4087 5.1 13.426C5.83333 14.4433 6.8 15.168 8 15.6ZM28 15.6C29.2 15.1667 30.1667 14.4413 30.9 13.424C31.6333 12.4067 32 11.2653 32 10V8H28V15.6Z" fill="#995B1D"/>
<path d="M17.9414 18.1172C17.2852 18.1172 16.6973 18.0039 16.1777 17.7773C15.6621 17.5469 15.2578 17.2285 14.9648 16.8223C14.6719 16.416 14.5234 15.957 14.5195 15.4453H16.7695C16.7734 15.6094 16.8262 15.7578 16.9277 15.8906C17.0293 16.0234 17.1699 16.127 17.3496 16.2012C17.5293 16.2754 17.7305 16.3125 17.9531 16.3125C18.1719 16.3125 18.3672 16.2734 18.5391 16.1953C18.7148 16.1133 18.8496 16.0039 18.9434 15.8672C19.041 15.7266 19.0898 15.5664 19.0898 15.3867C19.0898 15.207 19.0352 15.0469 18.9258 14.9062C18.8164 14.7656 18.6621 14.6562 18.4629 14.5781C18.2637 14.5 18.0352 14.4609 17.7773 14.4609H16.9219V12.9141H17.7773C18.0117 12.9141 18.2207 12.875 18.4043 12.7969C18.5879 12.7188 18.7285 12.6113 18.8262 12.4746C18.9277 12.334 18.9766 12.1758 18.9727 12C18.9766 11.832 18.9355 11.6816 18.8496 11.5488C18.7637 11.4121 18.6426 11.3066 18.4863 11.2324C18.334 11.1582 18.1602 11.1211 17.9648 11.1211C17.75 11.1211 17.5566 11.1602 17.3848 11.2383C17.2129 11.3125 17.0781 11.4199 16.9805 11.5605C16.8828 11.6973 16.832 11.8516 16.8281 12.0234H14.6953C14.6992 11.5195 14.8398 11.0684 15.1172 10.6699C15.3984 10.2715 15.7871 9.96094 16.2832 9.73828C16.7793 9.51172 17.3398 9.39844 17.9648 9.39844C18.5781 9.39844 19.125 9.50586 19.6055 9.7207C20.0859 9.93164 20.459 10.2246 20.7246 10.5996C20.9941 10.9707 21.1289 11.3906 21.1289 11.8594C21.1289 12.168 21.0547 12.4473 20.9062 12.6973C20.7617 12.9434 20.5586 13.1426 20.2969 13.2949C20.0352 13.4434 19.7383 13.5352 19.4062 13.5703V13.6406C20.0664 13.7148 20.5703 13.9238 20.918 14.2676C21.2695 14.6074 21.4453 15.043 21.4453 15.5742C21.4453 16.0664 21.2969 16.5059 21 16.8926C20.7031 17.2754 20.2891 17.5762 19.7578 17.7949C19.2266 18.0098 18.6211 18.1172 17.9414 18.1172Z" fill="white"/>
</svg>
