<svg width="12" height="12" viewBox="0 0 12 12" fill="none" xmlns="http://www.w3.org/2000/svg">
<path d="M3.60536 3.00469C3.60536 3.07559 3.60536 3.1465 3.6056 3.2174C3.60585 3.39587 3.60283 3.57433 3.60934 3.7528C3.61236 3.79211 3.61441 3.8319 3.6243 3.87025C3.63527 3.91438 3.65673 3.95658 3.68893 3.98914C3.71922 4.02093 3.75898 4.04208 3.80228 4.04943C3.83532 4.07054 3.86366 4.09803 3.89127 4.12576L3.92443 4.15953V6.28784H5.01415L4.99281 3.86458C4.97086 3.82177 4.9494 3.77872 4.92866 3.73531C4.88911 3.65331 4.84967 3.57108 4.80168 3.49366C4.69316 3.32135 4.53631 3.18479 4.3507 3.10104C4.32115 3.08777 4.29161 3.07511 4.26122 3.06402C4.14836 3.02254 4.03018 2.99818 3.91177 2.97901C3.87198 2.9725 3.83218 2.96671 3.79239 2.96007L3.60536 2.92969V3.00469ZM1.17993 3.1295L1.18475 4.19522C1.18668 4.57229 1.18873 4.94924 1.19126 5.3263C1.19283 5.55903 1.19464 5.79176 1.19609 6.02461L1.1979 6.26698L1.36888 6.2712L1.37998 6.27144L1.42339 6.27265L1.42894 6.27277L1.47777 6.27422C1.63236 6.2788 1.78695 6.2841 1.94166 6.28507H1.94721C1.96505 6.28507 1.98302 6.28423 2.00099 6.2835C2.04235 6.28145 2.08407 6.27518 2.12242 6.25902C2.13833 6.25239 2.15353 6.24419 2.16764 6.23442C2.21768 6.26336 2.27013 6.28857 2.32536 6.30593C2.36334 6.31835 2.40205 6.3286 2.44112 6.3362C2.5605 6.35947 2.6835 6.36007 2.80348 6.34211C2.91539 6.32502 3.02454 6.29319 3.12809 6.24745C3.18067 6.2249 3.23155 6.19801 3.27979 6.16714C3.41625 6.07886 3.5332 5.96358 3.62345 5.82842C3.64094 5.80261 3.6577 5.77644 3.67229 5.74883C3.71112 5.67612 3.73764 5.59689 3.75187 5.51574C3.78515 5.33764 3.78998 5.15519 3.77478 4.97492C3.77019 4.91516 3.76254 4.85568 3.75187 4.7967C3.7327 4.69396 3.70123 4.59267 3.65179 4.50006C3.63545 4.47023 3.618 4.44103 3.59945 4.41251C3.52132 4.29145 3.42593 4.18063 3.31246 4.0914C3.29357 4.0762 3.27384 4.06207 3.25338 4.04907C3.1639 3.99228 3.06406 3.95321 2.9618 3.92644C2.79888 3.88275 2.62838 3.87518 2.46222 3.90425C2.39494 3.91643 2.32874 3.93524 2.26531 3.96093V3.06534H1.17969L1.17993 3.1295ZM8.81594 3.88399C8.7425 3.8852 8.66931 3.89316 8.5972 3.9069C8.45823 3.93332 8.32459 3.98254 8.20168 4.05257C8.04795 4.14225 7.92001 4.27015 7.83028 4.42385C7.80254 4.47112 7.77879 4.52056 7.75865 4.57156C7.71729 4.67503 7.69016 4.78379 7.6746 4.89401C7.64204 4.75059 7.58272 4.61461 7.49976 4.49319C7.42322 4.38065 7.32918 4.28108 7.22121 4.19824C6.98843 4.02128 6.70711 3.91975 6.41498 3.90727C6.3635 3.90556 6.31197 3.90677 6.26063 3.91088C6.01334 3.93165 5.77623 4.01871 5.57427 4.1629C5.46308 4.24223 5.36551 4.33907 5.28535 4.44965C5.20861 4.55474 5.15143 4.67279 5.11653 4.79814C5.10254 4.84987 5.09301 4.90293 5.08819 4.95635C5.07975 5.05487 5.07191 5.15375 5.07613 5.25263C5.0771 5.27952 5.07927 5.30641 5.08349 5.33306C5.09458 5.40456 5.11761 5.47366 5.14595 5.5401C5.16259 5.57953 5.18104 5.61812 5.20009 5.65646C5.3029 5.8442 5.44516 6.00743 5.61707 6.13494C5.71855 6.20846 5.83179 6.26419 5.95194 6.29978C6.07336 6.33668 6.19998 6.35525 6.32671 6.35935C6.37591 6.36068 6.42523 6.35935 6.47431 6.35609C6.62502 6.34677 6.7733 6.31355 6.9136 6.2577C6.93443 6.2495 6.95488 6.24032 6.97485 6.2302C7.06288 6.1851 7.14548 6.12988 7.22217 6.06741C7.29199 6.01074 7.35686 5.94804 7.41728 5.88135C7.45599 5.8383 7.4912 5.792 7.52255 5.74316C7.59047 5.63734 7.64031 5.52096 7.67002 5.39877C7.68365 5.52213 7.71223 5.64465 7.76323 5.75812C7.79519 5.82926 7.83619 5.89667 7.88623 5.9566C7.95374 6.03682 8.03346 6.10592 8.12246 6.16135C8.21434 6.22007 8.31358 6.2665 8.41487 6.30677C8.45876 6.3239 8.50435 6.33644 8.55053 6.34512V7.35501L8.72092 7.34778L8.73804 7.34706L8.75516 7.34633L8.76071 7.34609L8.79749 7.34476C8.95618 7.33874 9.11487 7.33427 9.27331 7.32415C9.38172 7.31619 9.48964 7.29147 9.5878 7.24408C9.61481 7.23081 9.64182 7.21719 9.66799 7.20223C9.76979 7.14336 9.86289 7.0706 9.94461 6.98603C9.95534 6.97541 9.96523 6.9642 9.97475 6.9525C10.0411 6.87388 10.0994 6.78754 10.14 6.69264C10.158 6.65044 10.1721 6.60643 10.1825 6.56169C10.2103 6.44533 10.2216 6.32595 10.2276 6.20681C10.2308 6.14616 10.2328 6.0855 10.235 6.02485C10.2437 5.63898 10.2412 5.25299 10.2414 4.867C10.2414 4.77246 10.2416 4.67792 10.2415 4.58338V3.9268H9.18878V3.95453C9.07052 3.90616 8.9437 3.88217 8.81594 3.88399ZM6.43222 4.91583C6.44464 4.91632 6.45755 4.91692 6.46912 4.92186C6.47322 4.92452 6.47648 4.92825 6.48034 4.93127C6.52254 4.96841 6.56258 5.00844 6.59754 5.05246C6.60225 5.0609 6.60309 5.07078 6.60394 5.08019C6.60562 5.10467 6.60333 5.12903 6.6014 5.15326C6.59262 5.21591 6.56039 5.27289 6.51121 5.31268C6.48697 5.33221 6.45863 5.34668 6.42836 5.3538C6.38954 5.36465 6.34757 5.36103 6.30983 5.34728C6.26163 5.33003 6.2205 5.29729 6.19286 5.25419C6.18264 5.23742 6.17465 5.21938 6.16911 5.20053C6.15495 5.1491 6.15988 5.09427 6.18298 5.04618C6.19142 5.02858 6.20215 5.01218 6.21457 4.99723C6.23603 4.96636 6.26618 4.94079 6.30187 4.92825C6.31345 4.92415 6.32563 4.92222 6.33769 4.92066C6.36466 4.91699 6.39187 4.91538 6.41908 4.91583C6.42342 4.91559 6.42776 4.91571 6.43222 4.91583ZM8.99139 4.91824C9.0114 4.91824 9.0313 4.92102 9.05023 4.92729C9.10522 4.94514 9.15225 4.98686 9.17588 5.03967C9.18348 5.05535 9.18975 5.07139 9.19385 5.08827C9.20386 5.12842 9.20362 5.17171 9.18975 5.2109C9.1842 5.22634 9.17636 5.24105 9.16648 5.25431L9.16334 5.25841C9.13756 5.29075 9.10417 5.31619 9.06615 5.33245C9.03961 5.3443 9.0117 5.35281 8.98307 5.35778C8.96414 5.35726 8.94548 5.35317 8.92808 5.34572C8.9082 5.33785 8.88872 5.32899 8.86972 5.31919C8.83701 5.29743 8.81182 5.2661 8.79761 5.22947C8.77834 5.18245 8.77437 5.13056 8.78627 5.08115C8.79206 5.05788 8.80195 5.03569 8.8157 5.01604C8.84753 4.96539 8.90167 4.92922 8.96088 4.9203C8.97101 4.91873 8.98126 4.918 8.99139 4.91824ZM2.50358 4.95321C2.52553 4.95334 2.54748 4.95743 2.56761 4.966C2.6138 4.98529 2.65202 5.02364 2.67011 5.07042C2.67964 5.09562 2.68277 5.12288 2.68108 5.14953C2.67863 5.18888 2.66523 5.22676 2.64238 5.2589C2.61707 5.28515 2.58567 5.30474 2.55097 5.31593C2.51154 5.32932 2.46922 5.33414 2.42774 5.33016C2.39539 5.32536 2.36617 5.3082 2.34622 5.28229C2.32059 5.25155 2.30505 5.21365 2.30173 5.17376C2.29685 5.1286 2.30603 5.08304 2.32801 5.04329C2.34188 5.01917 2.36166 4.99807 2.38601 4.9842C2.42134 4.96334 2.46258 4.95273 2.50358 4.95321Z" fill="white"/>
<path d="M5.60235 11.383C5.54809 11.3319 5.35998 10.9236 5.0057 10.0908L4.48888 8.86881H2.95106C2.06091 8.86881 1.33993 8.85615 1.24105 8.83698C0.985777 8.78911 0.641147 8.60727 0.45605 8.42217C0.267938 8.23406 0.0860973 7.90534 0.0349695 7.66285C0.00952616 7.54805 0 6.66103 0 4.83937C0 2.55489 0.00627038 2.15612 0.0477514 1.99345C0.200894 1.40633 0.689019 0.956427 1.27614 0.863939C1.56314 0.816187 9.86163 0.816187 10.1456 0.863939C10.7167 0.953292 11.1889 1.36171 11.358 1.9041C11.4186 2.10511 11.4219 2.1976 11.4219 4.82972C11.4219 6.54298 11.409 7.59592 11.3867 7.68516C11.3006 8.06488 10.9751 8.48596 10.6306 8.67106C10.2764 8.85929 10.1902 8.86881 8.49927 8.86881H6.96471L6.44789 10.0908C6.16066 10.7608 5.9055 11.3319 5.87668 11.3606C5.78106 11.4563 5.6917 11.4627 5.60235 11.383ZM9.57127 7.03436C9.66701 6.9801 9.79145 6.87797 9.84885 6.80139C10.0371 6.55263 10.0499 6.46014 10.0499 5.22536V4.11501H9.3799V4.31603L9.30972 4.25224C9.13415 4.09271 8.89816 4.03844 8.62697 4.09271C8.11642 4.19798 7.84848 4.56178 7.84848 5.14878C7.84848 5.64017 7.98245 5.8858 8.34613 6.0645C8.50892 6.14421 8.59188 6.16652 8.73538 6.16652C8.96509 6.16338 9.15658 6.11225 9.26824 6.02302L9.35747 5.95272L9.33516 6.0932C9.29055 6.37079 9.14379 6.50801 8.88852 6.50801H8.74177V7.15242L9.07036 7.13963C9.35759 7.12999 9.41499 7.11733 9.57127 7.03436ZM3.0819 6.05486C3.26374 5.97189 3.43919 5.79319 3.52215 5.61774C3.6115 5.41672 3.61476 4.94138 3.52854 4.69249C3.46475 4.50438 3.27013 4.26816 3.11373 4.18532C2.78839 4.01614 2.37358 4.04483 2.14713 4.25224L2.07369 4.31615V3.25368H1.37189L1.37816 4.66693L1.38781 6.07716L1.73232 6.08681C2.05777 6.09646 2.07369 6.0932 2.07369 6.02929C2.07369 5.94959 2.08334 5.94959 2.23009 6.04533C2.45341 6.19522 2.77875 6.19847 3.0819 6.05498V6.05486ZM6.81796 6.08681C7.01259 6.01663 7.27739 5.79017 7.38266 5.60182C7.73042 4.99564 7.33479 4.26189 6.58186 4.11501C6.10965 4.02253 5.5991 4.25224 5.37589 4.66066C5.30559 4.79463 5.28015 4.88398 5.2705 5.07547C5.25784 5.28915 5.26737 5.34015 5.34394 5.51247C5.43643 5.71987 5.64697 5.94645 5.83846 6.04533C6.11604 6.18883 6.4989 6.20486 6.81796 6.08681ZM4.81108 4.99878L4.80155 3.90773L4.69628 3.69393C4.54953 3.3973 4.31656 3.23764 3.9337 3.17385L3.7966 3.15155V3.5057C3.7966 3.80873 3.80299 3.85986 3.84761 3.85986C3.87631 3.85986 3.94649 3.90773 4.00714 3.96838L4.11567 4.07679V6.0932H4.8206L4.81108 4.99878Z" fill="#42D31A"/>
<path d="M8.81188 5.50819C8.60134 5.41884 8.51837 5.13173 8.64282 4.92746C8.81525 4.6436 9.21716 4.66904 9.35113 4.97207C9.45001 5.19877 9.35113 5.4315 9.11189 5.52097C8.99372 5.56559 8.9362 5.56245 8.81188 5.50819ZM2.26836 5.4731C2.03226 5.31031 2.0577 4.92746 2.31298 4.80627C2.66388 4.64034 2.99898 4.98811 2.82028 5.33274C2.73093 5.50819 2.42778 5.58476 2.26836 5.4731ZM6.16384 5.49227C6.11633 5.46382 6.07513 5.42597 6.04276 5.38104C6.01039 5.33611 5.98753 5.28504 5.97558 5.23097C5.96364 5.17689 5.96286 5.12095 5.97329 5.06656C5.98373 5.01217 6.00516 4.96049 6.03626 4.91467C6.12875 4.77757 6.22763 4.72656 6.40634 4.72656C6.52439 4.72656 6.56262 4.74248 6.66801 4.85088C6.77328 4.95628 6.79233 4.9945 6.79233 5.11255C6.79233 5.45393 6.44468 5.66447 6.16384 5.49227Z" fill="#42D31A"/>
</svg>
