<svg width="11" height="11" viewBox="0 0 11 11" fill="none" xmlns="http://www.w3.org/2000/svg">
<path d="M5.5018 0C3.2056 0 2.53405 0.00236943 2.40351 0.0132011C1.93229 0.0523814 1.63907 0.126595 1.31962 0.285686C1.07344 0.407965 0.87928 0.549708 0.687662 0.748402C0.338689 1.11076 0.127191 1.55655 0.0506281 2.08645C0.0134043 2.34371 0.00257558 2.39617 0.000375998 3.71019C-0.000469997 4.1482 0.000375998 4.72465 0.000375998 5.49784C0.000375998 7.79281 0.00291398 8.46386 0.0139119 8.59418C0.0519817 9.05284 0.123891 9.3414 0.27617 9.65704C0.567193 10.2612 1.12301 10.7148 1.77781 10.8841C2.00454 10.9425 2.25495 10.9746 2.57643 10.9898C2.71264 10.9958 4.10091 11 5.49004 11C6.87916 11 8.26828 10.9983 8.4011 10.9915C8.77334 10.974 8.98949 10.945 9.22849 10.8832C9.88752 10.7131 10.4332 10.2663 10.7301 9.65366C10.8794 9.34563 10.9552 9.04607 10.9894 8.61136C10.9969 8.51658 11 7.00548 11 5.4964C11 3.98708 10.9966 2.47876 10.9892 2.38399C10.9545 1.94226 10.8788 1.64523 10.7246 1.33128C10.5982 1.07428 10.4577 0.882359 10.2538 0.68612C9.88997 0.33849 9.44498 0.126934 8.91471 0.050435C8.65778 0.0132857 8.6066 0.00228481 7.29192 0H5.5018Z" fill="url(#paint0_radial_251_26)"/>
<path d="M5.5018 0C3.2056 0 2.53405 0.00236943 2.40351 0.0132011C1.93229 0.0523814 1.63907 0.126595 1.31962 0.285686C1.07344 0.407965 0.87928 0.549708 0.687662 0.748402C0.338689 1.11076 0.127191 1.55655 0.0506281 2.08645C0.0134043 2.34371 0.00257558 2.39617 0.000375998 3.71019C-0.000469997 4.1482 0.000375998 4.72465 0.000375998 5.49784C0.000375998 7.79281 0.00291398 8.46386 0.0139119 8.59418C0.0519817 9.05284 0.123891 9.3414 0.27617 9.65704C0.567193 10.2612 1.12301 10.7148 1.77781 10.8841C2.00454 10.9425 2.25495 10.9746 2.57643 10.9898C2.71264 10.9958 4.10091 11 5.49004 11C6.87916 11 8.26828 10.9983 8.4011 10.9915C8.77334 10.974 8.98949 10.945 9.22849 10.8832C9.88752 10.7131 10.4332 10.2663 10.7301 9.65366C10.8794 9.34563 10.9552 9.04607 10.9894 8.61136C10.9969 8.51658 11 7.00548 11 5.4964C11 3.98708 10.9966 2.47876 10.9892 2.38399C10.9545 1.94226 10.8788 1.64523 10.7246 1.33128C10.5982 1.07428 10.4577 0.882359 10.2538 0.68612C9.88997 0.33849 9.44498 0.126934 8.91471 0.050435C8.65778 0.0132857 8.6066 0.00228481 7.29192 0H5.5018Z" fill="url(#paint1_radial_251_26)"/>
<path d="M5.49861 1.4375C4.39577 1.4375 4.25737 1.44232 3.82422 1.46204C3.39192 1.48184 3.09683 1.5503 2.83864 1.65075C2.57156 1.7545 2.345 1.89328 2.11929 2.11913C1.89341 2.34491 1.75466 2.57153 1.65061 2.8386C1.54993 3.09695 1.48141 3.3922 1.46195 3.82445C1.44258 4.25772 1.4375 4.39624 1.4375 5.49938C1.4375 6.60252 1.44241 6.74054 1.46203 7.17381C1.48191 7.60623 1.55036 7.90139 1.65069 8.15966C1.75449 8.42681 1.89324 8.65343 2.11903 8.87921C2.34466 9.10515 2.57122 9.24427 2.83813 9.34802C3.0965 9.44846 3.39166 9.51692 3.82388 9.53672C4.25703 9.55644 4.39535 9.56126 5.49811 9.56126C6.60103 9.56126 6.73901 9.55644 7.17216 9.53672C7.60446 9.51692 7.89989 9.44846 8.15825 9.34802C8.42525 9.24427 8.65147 9.10515 8.87709 8.87921C9.10297 8.65343 9.24172 8.42681 9.34577 8.15975C9.4456 7.90139 9.51413 7.60614 9.53443 7.17389C9.55389 6.74063 9.55897 6.60252 9.55897 5.49938C9.55897 4.39624 9.55389 4.2578 9.53443 3.82453C9.51413 3.39211 9.4456 3.09695 9.34577 2.83868C9.24172 2.57153 9.10297 2.34491 8.87709 2.11913C8.65121 1.89319 8.42533 1.75441 8.158 1.65075C7.89912 1.5503 7.60387 1.48184 7.17157 1.46204C6.73842 1.44232 6.60052 1.4375 5.49734 1.4375H5.49861ZM5.13433 2.16948C5.24245 2.16932 5.36308 2.16948 5.49861 2.16948C6.58284 2.16948 6.71135 2.17338 7.13951 2.19284C7.53543 2.21095 7.75031 2.27712 7.89346 2.33272C8.08296 2.40634 8.21806 2.49435 8.36011 2.63652C8.50223 2.77868 8.59022 2.91408 8.66399 3.10363C8.71957 3.24665 8.78581 3.46159 8.80383 3.85762C8.82329 4.28581 8.82752 4.41444 8.82752 5.49845C8.82752 6.58247 8.82329 6.71109 8.80383 7.13928C8.78573 7.53532 8.71957 7.75026 8.66399 7.89327C8.59039 8.08282 8.50223 8.2178 8.36011 8.35988C8.21798 8.50204 8.08304 8.59005 7.89346 8.66367C7.75048 8.71952 7.53543 8.78553 7.13951 8.80364C6.71143 8.8231 6.58284 8.82733 5.49861 8.82733C4.4143 8.82733 4.2858 8.8231 3.85772 8.80364C3.4618 8.78536 3.24691 8.71918 3.10369 8.66359C2.91418 8.58997 2.77882 8.50196 2.6367 8.35979C2.49457 8.21763 2.40659 8.08257 2.33282 7.89293C2.27723 7.74992 2.21099 7.53498 2.19297 7.13894C2.17352 6.71075 2.16962 6.58213 2.16962 5.49744C2.16962 4.41274 2.17352 4.28479 2.19297 3.8566C2.21108 3.46057 2.27723 3.24563 2.33282 3.10245C2.40642 2.91289 2.49457 2.7775 2.6367 2.63533C2.77882 2.49317 2.91418 2.40516 3.10369 2.33137C3.24683 2.27552 3.4618 2.20951 3.85772 2.19132C4.23233 2.17439 4.3775 2.16932 5.13433 2.16847V2.16948ZM7.66622 2.84393C7.39719 2.84393 7.17893 3.062 7.17893 3.33118C7.17893 3.60028 7.39719 3.81861 7.66622 3.81861C7.93525 3.81861 8.15351 3.60028 8.15351 3.33118C8.15351 3.06208 7.93525 2.84376 7.66622 2.84376V2.84393ZM5.49861 3.41344C4.34696 3.41344 3.41324 4.34742 3.41324 5.49938C3.41324 6.65135 4.34696 7.5849 5.49861 7.5849C6.65027 7.5849 7.58365 6.65135 7.58365 5.49938C7.58365 4.34742 6.65027 3.41344 5.49861 3.41344ZM5.49861 4.14542C6.24613 4.14542 6.8522 4.75157 6.8522 5.49938C6.8522 6.24711 6.24613 6.85334 5.49861 6.85334C4.75101 6.85334 4.14502 6.24711 4.14502 5.49938C4.14502 4.75157 4.75101 4.14542 5.49861 4.14542Z" fill="white"/>
<defs>
<radialGradient id="paint0_radial_251_26" cx="0" cy="0" r="1" gradientUnits="userSpaceOnUse" gradientTransform="translate(2.92189 11.8472) rotate(-90) scale(10.9018 10.1395)">
<stop stop-color="#FFDD55"/>
<stop offset="0.1" stop-color="#FFDD55"/>
<stop offset="0.5" stop-color="#FF543E"/>
<stop offset="1" stop-color="#C837AB"/>
</radialGradient>
<radialGradient id="paint1_radial_251_26" cx="0" cy="0" r="1" gradientUnits="userSpaceOnUse" gradientTransform="translate(-1.84256 0.792421) rotate(78.6806) scale(4.87315 20.0874)">
<stop stop-color="#3771C8"/>
<stop offset="0.128" stop-color="#3771C8"/>
<stop offset="1" stop-color="#6600FF" stop-opacity="0"/>
</radialGradient>
</defs>
</svg>
