<svg width="9" height="8" viewBox="0 0 9 8" fill="none" xmlns="http://www.w3.org/2000/svg">
<path d="M3 4.5C3 4.10218 3.15804 3.72064 3.43934 3.43934C3.72064 3.15804 4.10218 3 4.5 3C4.89782 3 5.27936 3.15804 5.56066 3.43934C5.84196 3.72064 6 4.10218 6 4.5C6 4.89782 5.84196 5.27936 5.56066 5.56066C5.27936 5.84196 4.89782 6 4.5 6C4.10218 6 3.72064 5.84196 3.43934 5.56066C3.15804 5.27936 3 4.89782 3 4.5Z" fill="black"/>
<path d="M2.81536 0H6.18464L6.79827 1.26316H9V8H0V1.26316H2.20173L2.81536 0ZM2.35227 4.52632C2.35227 5.11258 2.57855 5.67484 2.98133 6.08939C3.3841 6.50395 3.93039 6.73684 4.5 6.73684C5.06961 6.73684 5.6159 6.50395 6.01867 6.08939C6.42145 5.67484 6.64773 5.11258 6.64773 4.52632C6.64773 3.94005 6.42145 3.37779 6.01867 2.96324C5.6159 2.54868 5.06961 2.31579 4.5 2.31579C3.93039 2.31579 3.3841 2.54868 2.98133 2.96324C2.57855 3.37779 2.35227 3.94005 2.35227 4.52632Z" fill="black"/>
</svg>
