<svg width="13" height="13" viewBox="0 0 13 13" fill="none" xmlns="http://www.w3.org/2000/svg">
<path d="M8.56812 6.5L12.5717 2.49645C13.1428 1.92535 13.1428 0.999426 12.5717 0.428325C12.0005 -0.142775 11.0747 -0.142775 10.5036 0.428325L6.5 4.43188L2.49645 0.428325C1.92535 -0.142775 0.999426 -0.142775 0.428325 0.428325C-0.142775 0.999426 -0.142775 1.92535 0.428325 2.49645L4.43188 6.5L0.428325 10.5036C-0.142775 11.0747 -0.142775 12.0006 0.428325 12.5717C0.713876 12.8572 1.08812 13 1.46237 13C1.83662 13 2.2109 12.8572 2.49642 12.5717L6.5 8.56812L10.5036 12.5717C10.7891 12.8572 11.1634 13 11.5376 13C11.9118 13 12.2861 12.8572 12.5716 12.5717C13.1427 12.0006 13.1427 11.0747 12.5716 10.5036L8.56812 6.5Z" fill="#C6BC73"/>
</svg>
