<svg width="13" height="13" viewBox="0 0 13 13" fill="none" xmlns="http://www.w3.org/2000/svg">
<path d="M6.4675 10.4C6.695 10.4 6.8874 10.3213 7.0447 10.164C7.202 10.0067 7.28043 9.81456 7.28 9.5875C7.27956 9.36043 7.20113 9.16803 7.0447 9.0103C6.88826 8.85256 6.69586 8.77413 6.4675 8.775C6.23913 8.77586 6.04695 8.85451 5.89095 9.01095C5.73495 9.16738 5.6563 9.35956 5.655 9.5875C5.6537 9.81543 5.73235 10.0078 5.89095 10.1647C6.04955 10.3216 6.24173 10.4 6.4675 10.4ZM6.5 13C5.60083 13 4.75583 12.8293 3.965 12.4878C3.17417 12.1463 2.48625 11.6833 1.90125 11.0987C1.31625 10.5142 0.853234 9.82626 0.512201 9.035C0.171167 8.24373 0.000434156 7.39873 8.22784e-07 6.5C-0.00043251 5.60126 0.170301 4.75627 0.512201 3.965C0.8541 3.17373 1.31712 2.48582 1.90125 1.90125C2.48538 1.31668 3.1733 0.853666 3.965 0.5122C4.7567 0.170733 5.6017 0 6.5 0C7.3983 0 8.24329 0.170733 9.03499 0.5122C9.82669 0.853666 10.5146 1.31668 11.0987 1.90125C11.6829 2.48582 12.1461 3.17373 12.4884 3.965C12.8308 4.75627 13.0013 5.60126 13 6.5C12.9987 7.39873 12.828 8.24373 12.4878 9.035C12.1476 9.82626 11.6846 10.5142 11.0987 11.0987C10.5129 11.6833 9.82496 12.1465 9.03499 12.4884C8.24503 12.8303 7.40003 13.0009 6.5 13ZM6.565 3.705C6.83583 3.705 7.07156 3.79167 7.2722 3.965C7.47283 4.13833 7.57293 4.355 7.5725 4.615C7.5725 4.85333 7.49948 5.06458 7.35345 5.24875C7.20741 5.43291 7.0421 5.60625 6.8575 5.76875C6.60833 5.98541 6.38906 6.22375 6.1997 6.48375C6.01033 6.74375 5.91543 7.03625 5.915 7.36125C5.915 7.51291 5.97198 7.64031 6.08595 7.74345C6.19991 7.84658 6.33251 7.89793 6.48375 7.8975C6.64625 7.8975 6.78448 7.84333 6.89845 7.735C7.01241 7.62666 7.08543 7.49125 7.1175 7.32875C7.16083 7.10125 7.25833 6.89823 7.41 6.7197C7.56166 6.54116 7.72416 6.37043 7.8975 6.2075C8.14666 5.96916 8.36073 5.70917 8.53969 5.4275C8.71866 5.14583 8.80793 4.83166 8.80749 4.485C8.80749 3.9325 8.58281 3.48032 8.13344 3.12845C7.68408 2.77658 7.16126 2.60043 6.565 2.6C6.15333 2.6 5.76073 2.68667 5.3872 2.86C5.01366 3.03333 4.72918 3.29875 4.53375 3.65625C4.45791 3.78625 4.43365 3.92448 4.46095 4.07095C4.48825 4.21742 4.56126 4.32835 4.68 4.40375C4.83166 4.49042 4.98875 4.5175 5.15125 4.485C5.31375 4.4525 5.44916 4.36042 5.5575 4.20875C5.67666 4.04625 5.82573 3.92167 6.0047 3.835C6.18366 3.74833 6.37043 3.705 6.565 3.705Z" fill="#C6BC73"/>
</svg>
