<svg width="13" height="10" viewBox="0 0 13 10" fill="none" xmlns="http://www.w3.org/2000/svg">
<path d="M0 0.833333C0 0.61232 0.0856026 0.400358 0.237976 0.244078C0.390349 0.0877975 0.597012 0 0.8125 0H1.625C1.84049 0 2.04715 0.0877975 2.19952 0.244078C2.3519 0.400358 2.4375 0.61232 2.4375 0.833333C2.4375 1.05435 2.3519 1.26631 2.19952 1.42259C2.04715 1.57887 1.84049 1.66667 1.625 1.66667H0.8125C0.597012 1.66667 0.390349 1.57887 0.237976 1.42259C0.0856026 1.26631 0 1.05435 0 0.833333ZM4.0625 0.833333C4.0625 0.61232 4.1481 0.400358 4.30048 0.244078C4.45285 0.0877975 4.65951 0 4.875 0H12.1875C12.403 0 12.6097 0.0877975 12.762 0.244078C12.9144 0.400358 13 0.61232 13 0.833333C13 1.05435 12.9144 1.26631 12.762 1.42259C12.6097 1.57887 12.403 1.66667 12.1875 1.66667H4.875C4.65951 1.66667 4.45285 1.57887 4.30048 1.42259C4.1481 1.26631 4.0625 1.05435 4.0625 0.833333ZM0 5C0 4.77899 0.0856026 4.56702 0.237976 4.41074C0.390349 4.25446 0.597012 4.16667 0.8125 4.16667H1.625C1.84049 4.16667 2.04715 4.25446 2.19952 4.41074C2.3519 4.56702 2.4375 4.77899 2.4375 5C2.4375 5.22101 2.3519 5.43297 2.19952 5.58926C2.04715 5.74554 1.84049 5.83333 1.625 5.83333H0.8125C0.597012 5.83333 0.390349 5.74554 0.237976 5.58926C0.0856026 5.43297 0 5.22101 0 5ZM4.0625 5C4.0625 4.77899 4.1481 4.56702 4.30048 4.41074C4.45285 4.25446 4.65951 4.16667 4.875 4.16667H12.1875C12.403 4.16667 12.6097 4.25446 12.762 4.41074C12.9144 4.56702 13 4.77899 13 5C13 5.22101 12.9144 5.43297 12.762 5.58926C12.6097 5.74554 12.403 5.83333 12.1875 5.83333H4.875C4.65951 5.83333 4.45285 5.74554 4.30048 5.58926C4.1481 5.43297 4.0625 5.22101 4.0625 5ZM0 9.16667C0 8.94565 0.0856026 8.73369 0.237976 8.57741C0.390349 8.42113 0.597012 8.33333 0.8125 8.33333H1.625C1.84049 8.33333 2.04715 8.42113 2.19952 8.57741C2.3519 8.73369 2.4375 8.94565 2.4375 9.16667C2.4375 9.38768 2.3519 9.59964 2.19952 9.75592C2.04715 9.9122 1.84049 10 1.625 10H0.8125C0.597012 10 0.390349 9.9122 0.237976 9.75592C0.0856026 9.59964 0 9.38768 0 9.16667ZM4.0625 9.16667C4.0625 8.94565 4.1481 8.73369 4.30048 8.57741C4.45285 8.42113 4.65951 8.33333 4.875 8.33333H12.1875C12.403 8.33333 12.6097 8.42113 12.762 8.57741C12.9144 8.73369 13 8.94565 13 9.16667C13 9.38768 12.9144 9.59964 12.762 9.75592C12.6097 9.9122 12.403 10 12.1875 10H4.875C4.65951 10 4.45285 9.9122 4.30048 9.75592C4.1481 9.59964 4.0625 9.38768 4.0625 9.16667Z" fill="black"/>
</svg>
