<svg width="32" height="44" viewBox="0 0 32 44" fill="none" xmlns="http://www.w3.org/2000/svg">
<path d="M21.8282 41.827L20.7182 43.491C21.0194 43.692 21.3695 43.8074 21.7312 43.825C22.0928 43.8425 22.4525 43.7616 22.7717 43.5908C23.091 43.4199 23.3579 43.1657 23.5439 42.855C23.73 42.5444 23.8282 42.1891 23.8282 41.827H21.8282ZM15.8282 37.827L16.9382 36.163C16.6095 35.9437 16.2233 35.8267 15.8282 35.8267C15.4331 35.8267 15.0468 35.9437 14.7182 36.163L15.8282 37.827ZM9.82819 41.827H7.82819C7.82813 42.1891 7.92637 42.5444 8.11244 42.855C8.2985 43.1657 8.5654 43.4199 8.88465 43.5908C9.20391 43.7616 9.56356 43.8425 9.92522 43.825C10.2869 43.8074 10.637 43.692 10.9382 43.491L9.82819 41.827ZM22.9382 40.163L16.9382 36.163L14.7182 39.491L20.7182 43.491L22.9382 40.163ZM14.7182 36.163L8.71819 40.163L10.9382 43.491L16.9382 39.491L14.7182 36.163ZM17.3522 4.70301L17.4362 4.80301L20.4822 2.21101L20.3982 2.11101L17.3522 4.70301ZM22.4862 6.89501L22.6162 6.88501L22.2962 2.89701L22.1662 2.90701L22.4862 6.89501ZM24.7702 9.03901L24.7602 9.16901L28.7482 9.48901L28.7582 9.35901L24.7702 9.03901ZM26.8522 14.219L26.9522 14.303L29.5442 11.257L29.4442 11.173L26.8522 14.219ZM26.9522 17.351L26.8522 17.435L29.4442 20.481L29.5442 20.397L26.9522 17.351ZM24.7602 22.485L24.7702 22.615L28.7582 22.295L28.7482 22.165L24.7602 22.485ZM22.6162 24.769L22.4862 24.759L22.1662 28.747L22.2962 28.757L22.6162 24.769ZM17.4362 26.851L17.3522 26.951L20.3982 29.543L20.4822 29.443L17.4362 26.851ZM14.3042 26.951L14.2202 26.851L11.1742 29.443L11.2582 29.543L14.3042 26.951ZM9.17019 24.759L9.04019 24.769L9.36019 28.757L9.49019 28.747L9.17019 24.759ZM6.88619 22.615L6.89619 22.485L2.90819 22.165L2.89819 22.295L6.88619 22.615ZM4.80419 17.435L4.70419 17.351L2.11219 20.397L2.21219 20.481L4.80419 17.435ZM4.70419 14.303L4.80419 14.219L2.21219 11.173L2.11219 11.257L4.70419 14.303ZM6.89619 9.16901L6.88619 9.03901L2.89819 9.35901L2.90819 9.48901L6.89619 9.16901ZM9.04019 6.88501L9.16819 6.89501L9.49019 2.90701L9.36019 2.89701L9.04019 6.88501ZM14.2202 4.80301L14.3042 4.70301L11.2582 2.11101L11.1742 2.21101L14.2202 4.80301ZM9.16819 6.89501C10.1155 6.97116 11.0693 6.8212 11.9473 6.45749C12.8252 6.09378 13.6043 5.52673 14.2202 4.80301L11.1742 2.21101C10.9687 2.4521 10.7088 2.64093 10.4161 2.76193C10.1233 2.88294 9.80594 2.93266 9.49019 2.90701L9.16819 6.89501ZM6.88619 9.03901C6.86295 8.75024 6.90272 8.45987 7.00275 8.18799C7.10278 7.91611 7.26068 7.6692 7.46553 7.46435C7.67038 7.2595 7.91728 7.1016 8.18917 7.00157C8.46105 6.90154 8.75142 6.86177 9.04019 6.88501L9.36019 2.89701C8.49404 2.82759 7.62316 2.94713 6.80776 3.24736C5.99235 3.54759 5.25189 4.02134 4.63756 4.63585C4.02324 5.25036 3.54972 5.99098 3.24975 6.80647C2.94977 7.62197 2.8285 8.49289 2.89819 9.35901L6.88619 9.03901ZM4.80419 14.219C5.5279 13.6031 6.09496 12.8241 6.45867 11.9461C6.82238 11.0681 6.97233 10.1163 6.89619 9.16901L2.90819 9.48901C2.93384 9.80477 2.88411 10.1221 2.76311 10.4149C2.6421 10.7077 2.45328 10.9675 2.21219 11.173L4.80419 14.219ZM4.70419 17.351C4.48326 17.1633 4.30579 16.9297 4.18408 16.6666C4.06238 16.4034 3.99934 16.1169 3.99934 15.827C3.99934 15.5371 4.06238 15.2506 4.18408 14.9875C4.30579 14.7243 4.48326 14.4908 4.70419 14.303L2.11219 11.257C1.45009 11.8203 0.918284 12.5207 0.553585 13.3098C0.188886 14.0988 0 14.9577 0 15.827C0 16.6963 0.188886 17.5552 0.553585 18.3443C0.918284 19.1333 1.45009 19.8337 2.11219 20.397L4.70419 17.351ZM6.89619 22.485C6.97233 21.5377 6.82238 20.5859 6.45867 19.7079C6.09496 18.83 5.5279 18.0509 4.80419 17.435L2.21219 20.481C2.45328 20.6865 2.6421 20.9464 2.76311 21.2391C2.88411 21.5319 2.93384 21.8493 2.90819 22.165L6.89619 22.485ZM9.04019 24.769C8.75142 24.7923 8.46105 24.7525 8.18917 24.6525C7.91728 24.5524 7.67038 24.3945 7.46553 24.1897C7.26068 23.9848 7.10278 23.7379 7.00275 23.466C6.90272 23.1941 6.86295 22.9038 6.88619 22.615L2.89819 22.295C2.82877 23.1612 2.94831 24.032 3.24854 24.8474C3.54876 25.6628 4.02251 26.4033 4.63702 27.0176C5.25154 27.632 5.99215 28.1055 6.80765 28.4055C7.62314 28.7054 8.49407 28.8247 9.36019 28.755L9.04019 24.769ZM17.3522 26.949C17.1644 27.1699 16.9309 27.3474 16.6677 27.4691C16.4046 27.5908 16.1181 27.6539 15.8282 27.6539C15.5383 27.6539 15.2518 27.5908 14.9886 27.4691C14.7255 27.3474 14.4919 27.1699 14.3042 26.949L11.2582 29.543C11.8215 30.2051 12.5219 30.7369 13.3109 31.1016C14.1 31.4663 14.9589 31.6552 15.8282 31.6552C16.6975 31.6552 17.5564 31.4663 18.3454 31.1016C19.1345 30.7369 19.8349 30.2051 20.3982 29.543L17.3522 26.949ZM24.7702 22.615C24.7935 22.904 24.7557 23.1945 24.6555 23.4666C24.5554 23.7386 24.3973 23.9856 24.1922 24.1905C23.9871 24.3954 23.74 24.5532 23.4678 24.6531C23.1957 24.753 22.9051 24.7926 22.6162 24.769L22.2962 28.757C23.1623 28.8264 24.0332 28.7069 24.8486 28.4067C25.664 28.1064 26.4045 27.6327 27.0188 27.0182C27.6331 26.4037 28.1067 25.663 28.4066 24.8475C28.7066 24.0321 28.8279 23.1611 28.7582 22.295L24.7702 22.615ZM26.8522 17.435C26.1285 18.0509 25.5614 18.83 25.1977 19.7079C24.834 20.5859 24.684 21.5377 24.7602 22.485L28.7482 22.165C28.7225 21.8493 28.7723 21.5319 28.8933 21.2391C29.0143 20.9464 29.2031 20.6865 29.4442 20.481L26.8522 17.435ZM26.9522 14.303C27.1731 14.4908 27.3506 14.7243 27.4723 14.9875C27.594 15.2506 27.657 15.5371 27.657 15.827C27.657 16.1169 27.594 16.4034 27.4723 16.6666C27.3506 16.9297 27.1731 17.1633 26.9522 17.351L29.5442 20.397C30.2063 19.8337 30.7381 19.1333 31.1028 18.3443C31.4675 17.5552 31.6564 16.6963 31.6564 15.827C31.6564 14.9577 31.4675 14.0988 31.1028 13.3098C30.7381 12.5207 30.2063 11.8203 29.5442 11.257L26.9522 14.303ZM24.7602 9.16901C24.684 10.1163 24.834 11.0681 25.1977 11.9461C25.5614 12.8241 26.1285 13.6031 26.8522 14.219L29.4442 11.173C29.2031 10.9675 29.0143 10.7077 28.8933 10.4149C28.7723 10.1221 28.7225 9.80477 28.7482 9.48901L24.7602 9.16901ZM22.6162 6.88501C22.905 6.86177 23.1953 6.90154 23.4672 7.00157C23.7391 7.1016 23.986 7.2595 24.1908 7.46435C24.3957 7.6692 24.5536 7.91611 24.6536 8.18799C24.7537 8.45987 24.7934 8.75024 24.7702 9.03901L28.7582 9.35901C28.8276 8.49287 28.7081 7.62198 28.4078 6.80658C28.1076 5.99118 27.6339 5.25071 27.0193 4.63639C26.4048 4.02206 25.6642 3.54854 24.8487 3.24857C24.0332 2.9486 23.1623 2.82733 22.2962 2.89701L22.6162 6.88501ZM17.4362 4.80301C18.0521 5.52673 18.8311 6.09378 19.7091 6.45749C20.5871 6.8212 21.5389 6.97116 22.4862 6.89501L22.1662 2.90701C21.8504 2.93266 21.5331 2.88294 21.2403 2.76193C20.9475 2.64093 20.6877 2.4521 20.4822 2.21101L17.4362 4.80301ZM20.3982 2.11101C19.8349 1.44925 19.1326 0.917749 18.3437 0.553261C17.5549 0.188773 16.6962 0 15.8272 0C14.9582 0 14.0995 0.188773 13.3106 0.553261C12.5217 0.917749 11.8215 1.44925 11.2582 2.11101L14.3042 4.70301C14.4919 4.48208 14.7255 4.30462 14.9886 4.18291C15.2518 4.0612 15.5383 3.99816 15.8282 3.99816C16.1181 3.99816 16.4046 4.0612 16.6677 4.18291C16.9309 4.30462 17.1644 4.48208 17.3522 4.70301L20.3982 2.11101ZM14.2202 26.851C13.686 26.2231 13.0281 25.7121 12.2875 25.3497C11.547 24.9874 10.7398 24.7815 9.91619 24.745L9.74019 28.741C10.0146 28.7533 10.2836 28.8219 10.5303 28.9427C10.777 29.0635 10.9962 29.2338 11.1742 29.443L14.2202 26.851ZM9.91619 24.747C9.66747 24.7362 9.41832 24.7409 9.17019 24.761L9.49019 28.749C9.57331 28.7418 9.65681 28.7398 9.74019 28.743L9.91619 24.747ZM11.8282 41.827V26.743H7.82819V41.827H11.8282ZM22.4862 24.759C22.2374 24.7388 21.9896 24.7341 21.7402 24.745L21.9162 28.741C21.9996 28.7378 22.0831 28.7398 22.1662 28.747L22.4862 24.759ZM21.7402 24.745C20.9166 24.7815 20.1093 24.9874 19.3688 25.3497C18.6283 25.7121 17.9704 26.2231 17.4362 26.851L20.4822 29.443C20.6604 29.2342 20.8796 29.0642 21.1263 28.9438C21.3731 28.8234 21.6419 28.755 21.9162 28.743L21.7402 24.745ZM19.8282 26.745V41.827H23.8282V26.743L19.8282 26.745Z" fill="black"/>
<path d="M19.8281 13.8281L13.8281 19.8281L11.8281 17.8281" stroke="black" stroke-width="4" stroke-linecap="round" stroke-linejoin="round"/>
</svg>
