<svg width="30" height="44" viewBox="0 0 30 44" fill="none" xmlns="http://www.w3.org/2000/svg">
<path d="M13.5866 18.8153C13.9634 18.072 15.0522 18.072 15.4291 18.8153L18.4959 24.8637C18.6456 25.1589 18.9349 25.3635 19.2695 25.4108L26.127 26.3807C26.9697 26.4999 27.3062 27.5079 26.6964 28.0864L21.7343 32.7945C21.4921 33.0242 21.3816 33.3552 21.4388 33.6796L22.6102 40.3275C22.7541 41.1444 21.8732 41.7673 21.1195 41.3817L14.9859 38.2429C14.6866 38.0898 14.329 38.0898 14.0298 38.2429L7.89613 41.3817C7.14245 41.7673 6.26148 41.1444 6.40541 40.3275L7.57683 33.6796C7.63405 33.3552 7.5235 33.0242 7.28135 32.7945L2.31923 28.0864C1.70938 27.5079 2.04595 26.4999 2.8886 26.3807L9.74613 25.4108C10.0807 25.3635 10.3701 25.1589 10.5197 24.8637L13.5866 18.8153Z" fill="white" stroke="black" stroke-width="4" stroke-linecap="round" stroke-linejoin="round"/>
<path d="M26.8367 2H2.17969V12L14.5082 17L26.8367 12V2Z" fill="white" stroke="black" stroke-width="4" stroke-linecap="round" stroke-linejoin="round"/>
</svg>
