<svg width="36" height="42" viewBox="0 0 36 42" fill="none" xmlns="http://www.w3.org/2000/svg">
<path fill-rule="evenodd" clip-rule="evenodd" d="M12 0C12.4899 6.46211e-05 12.9627 0.179912 13.3288 0.505431C13.6948 0.830949 13.9287 1.2795 13.986 1.766L14 2L14.004 3.124L14.042 5.494L14.132 8.45L14.268 11.584L14.304 12.284L20.972 8.284C21.2584 8.11243 21.5831 8.01527 21.9166 8.00136C22.2502 7.98745 22.5819 8.05725 22.8815 8.20438C23.1811 8.35152 23.4392 8.57131 23.6321 8.84373C23.825 9.11614 23.9467 9.43251 23.986 9.764L24 10V14.264L32.89 8.336C33.174 8.14634 33.5018 8.03254 33.8422 8.00545C34.1826 7.97836 34.5243 8.03887 34.8347 8.18124C35.145 8.3236 35.4138 8.54306 35.6154 8.81872C35.8169 9.09438 35.9445 9.41705 35.986 9.756L36 10V34C36 34.4899 35.8201 34.9627 35.4946 35.3287C35.1691 35.6948 34.7205 35.9287 34.234 35.986L34 36H2.00003C1.72051 36 1.4441 35.9414 1.18862 35.828C0.933146 35.7146 0.704273 35.5489 0.516769 35.3417C0.329264 35.1344 0.187292 34.8901 0.10001 34.6245C0.012728 34.359 -0.017926 34.0781 0.0100253 33.8L0.202025 31.848L0.548025 28.136L0.914025 23.862L1.16003 20.73L1.31603 18.548L1.56802 14.6L1.75003 11.2L1.90203 7.5L1.95403 5.66L2.00003 2.68V2.006C1.99813 1.51476 2.17709 1.04 2.50279 0.672243C2.82849 0.304491 3.27815 0.0694724 3.76602 0.0120001L4.00003 0H12ZM20 13.532L14.566 16.792L14.744 19.39L14.954 22.206L15.2 25.246L15.486 28.508L15.812 32H32V13.738L23.11 19.664C22.8088 19.865 22.4587 19.9804 22.0971 19.9979C21.7354 20.0155 21.3758 19.9346 21.0565 19.7637C20.7372 19.5929 20.4703 19.3386 20.2843 19.028C20.0982 18.7174 20 18.3621 20 18V13.532ZM10.014 4H5.98603L5.91603 7.08L5.79203 10.38L5.61803 13.86L5.50203 15.832L5.31403 18.702L4.95403 23.534L4.65403 27.114L4.30203 30.986L4.20603 32H11.794L11.514 29.014L11.266 26.194L11.046 23.534L10.686 18.702L10.498 15.832L10.286 12.044L10.186 9.86L10.072 6.672L10.028 4.884L10.014 4ZM20 22C20.5305 22 21.0392 22.2107 21.4142 22.5858C21.7893 22.9609 22 23.4696 22 24V26C22 26.5304 21.7893 27.0391 21.4142 27.4142C21.0392 27.7893 20.5305 28 20 28C19.4696 28 18.9609 27.7893 18.5858 27.4142C18.2107 27.0391 18 26.5304 18 26V24C18 23.4696 18.2107 22.9609 18.5858 22.5858C18.9609 22.2107 19.4696 22 20 22ZM28 22C28.4899 22.0001 28.9627 22.1799 29.3288 22.5054C29.6948 22.8309 29.9287 23.2795 29.986 23.766L30 24V26C29.9995 26.5098 29.8043 27.0001 29.4543 27.3707C29.1044 27.7414 28.6261 27.9645 28.1172 27.9943C27.6084 28.0242 27.1073 27.8587 26.7164 27.5315C26.3255 27.2043 26.0742 26.7402 26.014 26.234L26 26V24C26 23.4696 26.2107 22.9609 26.5858 22.5858C26.9609 22.2107 27.4696 22 28 22Z" fill="black"/>
</svg>
