<svg width="49" height="43" viewBox="0 0 49 43" fill="none" xmlns="http://www.w3.org/2000/svg">
<path d="M41 8V6.5C40.9965 5.30759 40.5213 4.16501 39.6782 3.32184C38.835 2.47868 37.6924 2.00346 36.5 2H6.5C5.30759 2.00346 4.16501 2.47868 3.32184 3.32184C2.47868 4.16501 2.00346 5.30759 2 6.5V30.5C2.00346 31.6924 2.47868 32.835 3.32184 33.6782C4.16501 34.5213 5.30759 34.9965 6.5 35H8" stroke="#1CA6FC" stroke-width="3" stroke-linejoin="round"/>
<path d="M42.6884 9.5H13.8116C11.4304 9.5 9.5 11.4304 9.5 13.8116V36.6884C9.5 39.0696 11.4304 41 13.8116 41H42.6884C45.0696 41 47 39.0696 47 36.6884V13.8116C47 11.4304 45.0696 9.5 42.6884 9.5Z" stroke="#1CA6FC" stroke-width="3" stroke-linejoin="round"/>
<path d="M35.4628 20.9547C37.056 20.9547 38.3475 19.6724 38.3475 18.0906C38.3475 16.5088 37.056 15.2266 35.4628 15.2266C33.8696 15.2266 32.5781 16.5088 32.5781 18.0906C32.5781 19.6724 33.8696 20.9547 35.4628 20.9547Z" stroke="#1CA6FC" stroke-width="3" stroke-miterlimit="10"/>
<path d="M32.5766 32.3892L24.4062 24.2901C23.884 23.7741 23.1853 23.4754 22.4514 23.4543C21.7175 23.4333 21.0029 23.6914 20.4519 24.1767L9.5 33.8395M25.3653 40.9982L36.4831 29.961C36.9947 29.4565 37.6751 29.1594 38.3929 29.127C39.1107 29.0946 39.8151 29.3293 40.37 29.7857L47 35.271" stroke="#1CA6FC" stroke-width="3" stroke-linecap="round" stroke-linejoin="round"/>
</svg>
