<svg width="36" height="36" viewBox="0 0 36 36" fill="none" xmlns="http://www.w3.org/2000/svg">
<path d="M33 0H3C2.20435 0 1.44129 0.31607 0.87868 0.87868C0.31607 1.44129 0 2.20435 0 3V33C0 33.7956 0.31607 34.5587 0.87868 35.1213C1.44129 35.6839 2.20435 36 3 36H33C33.7956 36 34.5587 35.6839 35.1213 35.1213C35.6839 34.5587 36 33.7956 36 33V3C36 2.20435 35.6839 1.44129 35.1213 0.87868C34.5587 0.31607 33.7956 0 33 0ZM13.5 28.5H6C5.60218 28.5 5.22064 28.342 4.93934 28.0607C4.65804 27.7794 4.5 27.3978 4.5 27C4.5 26.6022 4.65804 26.2206 4.93934 25.9393C5.22064 25.658 5.60218 25.5 6 25.5H13.5C13.8978 25.5 14.2794 25.658 14.5607 25.9393C14.842 26.2206 15 26.6022 15 27C15 27.3978 14.842 27.7794 14.5607 28.0607C14.2794 28.342 13.8978 28.5 13.5 28.5ZM4.5 18C4.5 17.6022 4.65804 17.2206 4.93934 16.9393C5.22064 16.658 5.60218 16.5 6 16.5H12C12.3978 16.5 12.7794 16.658 13.0607 16.9393C13.342 17.2206 13.5 17.6022 13.5 18C13.5 18.3978 13.342 18.7794 13.0607 19.0607C12.7794 19.342 12.3978 19.5 12 19.5H6C5.60218 19.5 5.22064 19.342 4.93934 19.0607C4.65804 18.7794 4.5 18.3978 4.5 18ZM24.3356 28.7963C24.2314 28.8484 24.1165 28.8755 24 28.8755C23.8835 28.8755 23.7686 28.8484 23.6644 28.7963C23.3719 28.65 16.5 25.1569 16.5 20.25C16.5004 19.3735 16.7799 18.5199 17.2981 17.8129C17.8164 17.106 18.5463 16.5825 19.3821 16.3184C20.2179 16.0543 21.1161 16.0633 21.9464 16.3441C22.7767 16.6249 23.496 17.1628 24 17.88C24.504 17.1628 25.2233 16.6249 26.0536 16.3441C26.8839 16.0633 27.7821 16.0543 28.6179 16.3184C29.4537 16.5825 30.1836 17.106 30.7019 17.8129C31.2201 18.5199 31.4996 19.3735 31.5 20.25C31.5 25.1569 24.6281 28.65 24.3356 28.7963ZM30 10.5H6C5.60218 10.5 5.22064 10.342 4.93934 10.0607C4.65804 9.77936 4.5 9.39782 4.5 9C4.5 8.60218 4.65804 8.22064 4.93934 7.93934C5.22064 7.65804 5.60218 7.5 6 7.5H30C30.3978 7.5 30.7794 7.65804 31.0607 7.93934C31.342 8.22064 31.5 8.60218 31.5 9C31.5 9.39782 31.342 9.77936 31.0607 10.0607C30.7794 10.342 30.3978 10.5 30 10.5Z" fill="black"/>
</svg>
