<svg width="40" height="46" viewBox="0 0 40 46" fill="none" xmlns="http://www.w3.org/2000/svg">
<path fill-rule="evenodd" clip-rule="evenodd" d="M20.001 13C21.7249 13 23.3782 12.3152 24.5972 11.0962C25.8162 9.87721 26.501 8.22391 26.501 6.5C26.501 4.77609 25.8162 3.12279 24.5972 1.90381C23.3782 0.684819 21.7249 0 20.001 0C18.2771 0 16.6238 0.684819 15.4048 1.90381C14.1858 3.12279 13.501 4.77609 13.501 6.5C13.501 8.22391 14.1858 9.87721 15.4048 11.0962C16.6238 12.3152 18.2771 13 20.001 13ZM13.795 14.667C15.182 14.58 17.218 14.5 20.001 14.5C22.783 14.5 24.819 14.58 26.207 14.667C27.857 14.771 29.325 15.719 30.017 17.247C30.9313 19.2671 31.6189 21.3824 32.067 23.554C32.466 25.522 30.94 27.224 29.003 27.308C28.4763 27.3313 27.8927 27.354 27.252 27.376L26.673 35.186C26.555 36.792 25.348 38.131 23.714 38.296C23.372 38.3306 23.0297 38.3613 22.687 38.388C22.4896 38.4026 22.2913 38.3775 22.1037 38.3142C21.9162 38.2508 21.7433 38.1505 21.5952 38.0191C21.4472 37.8877 21.327 37.728 21.2417 37.5493C21.1565 37.3707 21.108 37.1767 21.099 36.979L20.799 30.975C20.7926 30.8468 20.7371 30.7259 20.644 30.6375C20.5509 30.5491 20.4274 30.4998 20.299 30.5H19.702C19.5736 30.4998 19.4501 30.5491 19.357 30.6375C19.2639 30.7259 19.2084 30.8468 19.202 30.975L18.902 36.979C18.8932 37.1768 18.8447 37.3709 18.7596 37.5496C18.6744 37.7284 18.5542 37.8883 18.4061 38.0198C18.258 38.1512 18.0851 38.2517 17.8975 38.3151C17.7099 38.3785 17.5115 38.4036 17.314 38.389C16.9527 38.3597 16.6103 38.3287 16.287 38.296C14.654 38.131 13.447 36.792 13.328 35.186L12.749 27.376C12.1083 27.354 11.5247 27.3313 10.998 27.308C9.061 27.224 7.535 25.522 7.934 23.554C8.38215 21.3824 9.06968 19.2671 9.984 17.247C10.676 15.719 12.145 14.771 13.795 14.667ZM9.034 35.312C9.54521 35.1701 9.97911 34.831 10.2403 34.3691C10.5014 33.9073 10.5684 33.3607 10.4265 32.8495C10.2846 32.3383 9.94545 31.9044 9.48365 31.6432C9.02184 31.3821 8.4752 31.3151 7.964 31.457C5.864 32.039 4.003 32.805 2.618 33.767C1.29 34.692 0 36.094 0 38.001C0 39.705 1.038 41.01 2.177 41.907C3.337 42.822 4.894 43.559 6.64 44.141C10.15 45.31 14.874 46 20 46C25.126 46 29.85 45.31 33.36 44.14C35.105 43.558 36.662 42.821 37.823 41.906C38.963 41.01 40 39.705 40 38.001C40 36.094 38.711 34.692 37.38 33.767C35.996 32.805 34.134 32.039 32.034 31.457C31.5228 31.3154 30.9763 31.3826 30.5146 31.644C30.053 31.9053 29.7141 32.3393 29.5725 32.8505C29.4309 33.3617 29.4981 33.9082 29.7595 34.3699C30.0208 34.8315 30.4548 35.1704 30.966 35.312C32.837 35.831 34.226 36.445 35.098 37.052C35.53 37.352 35.772 37.607 35.896 37.787C35.9358 37.8402 35.9677 37.8988 35.991 37.961C36.001 37.989 36 38 36 38.001C36.0013 38.0023 35.9993 38.0123 35.994 38.031C35.9782 38.0778 35.9567 38.1225 35.93 38.164C35.845 38.302 35.672 38.51 35.347 38.765C34.687 39.285 33.607 39.842 32.095 40.346C29.092 41.347 24.815 42.001 20 42.001C15.185 42.001 10.908 41.347 7.905 40.346C6.392 39.842 5.313 39.286 4.652 38.766C4.328 38.51 4.155 38.302 4.07 38.164C4.04327 38.1225 4.02178 38.0778 4.006 38.031C4.00247 38.0214 4.00045 38.0112 4 38.001C4 37.999 4 37.988 4.01 37.961C4.03294 37.8988 4.06459 37.8403 4.104 37.787C4.228 37.607 4.47 37.352 4.902 37.052C5.775 36.445 7.162 35.831 9.034 35.312Z" fill="#878787"/>
</svg>
