<svg width="40" height="44" viewBox="0 0 40 44" fill="none" xmlns="http://www.w3.org/2000/svg">
<path d="M17.5445 1.37413C18.2006 0.863716 18.9994 0.570382 19.8299 0.534898C20.6603 0.499413 21.4813 0.72354 22.1785 1.17613L22.4565 1.37613L39.2245 14.4161C40.6665 15.5381 39.9645 17.8001 38.2265 17.9861L37.9945 17.9981H36.0005V33.9981C36.0008 35.0073 35.6197 35.9793 34.9335 36.7192C34.2473 37.4592 33.3068 37.9124 32.3005 37.9881L32.0005 37.9981H8.00048C6.99168 37.9979 6.02019 37.6166 5.28065 36.9305C4.54112 36.2443 4.08815 35.3041 4.01248 34.2981L4.00048 33.9981V17.9981H2.00648C0.180485 17.9981 -0.657515 15.7821 0.600485 14.5681L0.776485 14.4161L17.5445 1.37413ZM20.0005 4.53213L7.25048 14.4481C7.70848 14.8181 8.00048 15.3841 8.00048 16.0181V33.9981H14.0005V23.9981C14.0005 22.4068 14.6326 20.8807 15.7578 19.7555C16.8831 18.6303 18.4092 17.9981 20.0005 17.9981C21.5918 17.9981 23.1179 18.6303 24.2431 19.7555C25.3683 20.8807 26.0005 22.4068 26.0005 23.9981V33.9981H32.0005V16.0181C32.0005 15.3841 32.2925 14.8181 32.7505 14.4481L20.0005 4.53213ZM20.0005 21.9981C19.4701 21.9981 18.9613 22.2088 18.5863 22.5839C18.2112 22.959 18.0005 23.4677 18.0005 23.9981V33.9981H22.0005V23.9981C22.0005 23.4677 21.7898 22.959 21.4147 22.5839C21.0396 22.2088 20.5309 21.9981 20.0005 21.9981Z" fill="black"/>
</svg>
