<svg width="36" height="40" viewBox="0 0 36 40" fill="none" xmlns="http://www.w3.org/2000/svg">
<path d="M34 40H2C1.46957 40 0.960859 39.7893 0.585786 39.4142C0.210714 39.0391 0 38.5304 0 38V2C0 1.46957 0.210714 0.960859 0.585786 0.585786C0.960859 0.210714 1.46957 0 2 0H34C34.5304 0 35.0391 0.210714 35.4142 0.585786C35.7893 0.960859 36 1.46957 36 2V38C36 38.5304 35.7893 39.0391 35.4142 39.4142C35.0391 39.7893 34.5304 40 34 40ZM32 36V4H4V36H32ZM8 8H16V16H8V8ZM8 20H28V24H8V20ZM8 28H28V32H8V28ZM20 10H28V14H20V10Z" fill="black"/>
</svg>
