<svg width="32" height="32" viewBox="0 0 32 32" fill="none" xmlns="http://www.w3.org/2000/svg">
<path d="M16 32C11.5333 32 7.75 30.45 4.65 27.35C1.55 24.25 0 20.4667 0 16C0 11.5333 1.55 7.75001 4.65 4.65001C7.75 1.55001 11.5333 6.89654e-06 16 6.89654e-06C18.3 6.89654e-06 20.5 0.474673 22.6 1.42401C24.7 2.37334 26.5 3.73201 28 5.50001V2.00001C28 1.43334 28.192 0.958674 28.576 0.576007C28.96 0.19334 29.4347 0.00134023 30 6.89654e-06C30.5653 -0.00132644 31.0407 0.190674 31.426 0.576007C31.8113 0.96134 32.0027 1.43601 32 2.00001V12C32 12.5667 31.808 13.042 31.424 13.426C31.04 13.81 30.5653 14.0013 30 14H20C19.4333 14 18.9587 13.808 18.576 13.424C18.1933 13.04 18.0013 12.5653 18 12C17.9987 11.4347 18.1907 10.96 18.576 10.576C18.9613 10.192 19.436 10 20 10H26.4C25.3333 8.13334 23.8753 6.66667 22.026 5.60001C20.1767 4.53334 18.168 4.00001 16 4.00001C12.6667 4.00001 9.83333 5.16667 7.5 7.50001C5.16667 9.83334 4 12.6667 4 16C4 19.3333 5.16667 22.1667 7.5 24.5C9.83333 26.8333 12.6667 28 16 28C18.2667 28 20.342 27.4253 22.226 26.276C24.11 25.1267 25.568 23.5847 26.6 21.65C26.8667 21.1833 27.242 20.8587 27.726 20.676C28.21 20.4933 28.7013 20.4847 29.2 20.65C29.7333 20.8167 30.1167 21.1667 30.35 21.7C30.5833 22.2333 30.5667 22.7333 30.3 23.2C28.9333 25.8667 26.9833 28 24.45 29.6C21.9167 31.2 19.1 32 16 32Z" fill="#878787"/>
</svg>
