<svg width="40" height="38" viewBox="0 0 40 38" fill="none" xmlns="http://www.w3.org/2000/svg">
<path d="M35.906 12.034L38 26M38 26V30C38 31.5913 37.3679 33.1174 36.2426 34.2426C35.1174 35.3679 33.5913 36 32 36H8C6.4087 36 4.88258 35.3679 3.75736 34.2426C2.63214 33.1174 2 31.5913 2 30V26M38 26H2M2 26L4.49 9.406C4.63221 8.45897 5.10947 7.59438 5.83504 6.96937C6.56062 6.34435 7.48635 6.00039 8.444 6H16M22 2L33 5M27.5 3.5L23.5 17.5" stroke="black" stroke-width="4" stroke-linecap="round" stroke-linejoin="round"/>
<path d="M10 17C13.3333 15.6667 16.6667 15.6667 20 17C23.3333 18.3333 26.6667 18.3333 30 17" stroke="black" stroke-width="4" stroke-linecap="round" stroke-linejoin="round"/>
</svg>
