<svg width="43" height="40" viewBox="0 0 43 40" fill="none" xmlns="http://www.w3.org/2000/svg">
<path d="M3.68359 16V34C3.68359 35.0609 4.10502 36.0783 4.85517 36.8284C5.60531 37.5786 6.62273 38 7.68359 38H35.6836C36.7445 38 37.7619 37.5786 38.512 36.8284C39.2622 36.0783 39.6836 35.0609 39.6836 34V16" stroke="black" stroke-width="3"/>
<path d="M27.3516 38V26C27.3516 24.9391 26.9301 23.9217 26.18 23.1716C25.4298 22.4214 24.4124 22 23.3516 22H19.3516C18.2907 22 17.2733 22.4214 16.5231 23.1716C15.773 23.9217 15.3516 24.9391 15.3516 26V38" stroke="black" stroke-width="3" stroke-miterlimit="16"/>
<path d="M41.3196 14.728L37.9316 2.87C37.8599 2.6193 37.7085 2.39877 37.5002 2.2418C37.292 2.08482 37.0384 1.99994 36.7776 2H28.6836L29.6336 13.408C29.6483 13.5914 29.7064 13.7686 29.803 13.9251C29.8997 14.0816 30.0322 14.2128 30.1896 14.308C30.9696 14.774 32.4936 15.634 33.6836 16C35.7156 16.626 38.6836 16.4 40.3756 16.192C40.5401 16.1707 40.698 16.1138 40.8382 16.0253C40.9784 15.9367 41.0976 15.8186 41.1875 15.6792C41.2774 15.5398 41.3358 15.3825 41.3586 15.2182C41.3814 15.0539 41.3681 14.8866 41.3196 14.728Z" stroke="black" stroke-width="3"/>
<path d="M25.683 16C26.819 15.65 28.259 14.852 29.063 14.376C29.2501 14.2641 29.4018 14.1017 29.5009 13.9075C29.5999 13.7133 29.6423 13.4951 29.623 13.278L28.683 2H14.683L13.743 13.278C13.7233 13.4955 13.7655 13.7141 13.8645 13.9087C13.9636 14.1033 14.1156 14.2659 14.303 14.378C15.107 14.852 16.547 15.65 17.683 16C20.669 16.92 22.697 16.92 25.683 16Z" stroke="black" stroke-width="3"/>
<path d="M5.43667 2.87L2.04867 14.73C2.00085 14.8884 1.98807 15.0552 2.01121 15.219C2.03435 15.3828 2.09286 15.5396 2.18268 15.6785C2.2725 15.8175 2.39147 15.9352 2.53135 16.0235C2.67122 16.1118 2.82864 16.1686 2.99268 16.19C4.68268 16.4 7.65268 16.624 9.68468 16C10.8747 15.634 12.4007 14.774 13.1787 14.31C13.3363 14.2146 13.469 14.0831 13.5657 13.9262C13.6624 13.7693 13.7203 13.5917 13.7347 13.408L14.6847 2H6.59068C6.32992 1.99994 6.07624 2.08482 5.86802 2.2418C5.6598 2.39877 5.50838 2.6193 5.43667 2.87Z" stroke="black" stroke-width="3"/>
</svg>
